<?xml version="1.0" standalone="no"?>
<!DOCTYPE svg PUBLIC "-//W3C//DTD SVG 1.1//EN" "http://www.w3.org/Graphics/SVG/1.1/DTD/svg11.dtd" >
<svg>
<metadata>
Created by FontForge 20110222 at Mon Mar  7 10:29:22 2011
 By www-data
Glyphs designed by Umar Rashid and Lateef Sagar Shaikh. OTF made by Lateef Sagar Shaikh. This font is free for distribution under GPL. Please visit www.paktype.org for more details.
</metadata>
<defs>
<font id="PakTypeNaqsh" horiz-adv-x="1161" >
  <font-face 
    font-family="PakType Naqsh"
    font-weight="400"
    font-stretch="normal"
    units-per-em="2048"
    panose-1="0 0 4 0 0 0 0 0 0 0"
    ascent="1638"
    descent="-410"
    x-height="807"
    cap-height="1583"
    bbox="0 -1047 2199 2307"
    underline-thickness="150"
    underline-position="-142"
    unicode-range="U+0020-2234"
  />
    <missing-glyph />
    <glyph glyph-name="space" unicode=" " horiz-adv-x="1042" 
 />
    <glyph glyph-name="O" unicode="&#x329;" horiz-adv-x="0" 
d="M87 -590v565h146v-565h-146z" />
    <glyph glyph-name="p" unicode="&#x34a;" horiz-adv-x="0" 
d="M282 240q-102 4 -160 -99h-84q28 78 62 135q83 136 183 142q41 1 123 -50l128 177l77 -58l-123 -168q24 -12 37 -12q85 0 135 113h84q-83 -279 -224 -279q-29 0 -69 18q-33 15 -65 30l-123 -163l-77 57l119 150q-8 4 -23 7z" />
    <glyph glyph-name="q" unicode="&#x34b;" horiz-adv-x="0" 
d="M747 629h-84q-50 -113 -135 -113q-20 0 -110 56t-132 55q-149 -9 -245 -277h84q58 103 160 99q13 0 95.5 -49.5t142.5 -49.5q141 0 224 279zM508 867q0 -44 -36 -86q-40 -45 -91 -45q-57 0 -92.5 37.5t-34.5 93.5q1 53 31 89q34 40 96 40q53 0 93 -46q34 -41 34 -83z
M520 165q0 -44 -36 -86q-40 -45 -91 -45q-57 0 -92.5 37.5t-34.5 93.5q1 53 31 89q34 40 96 40q53 0 93 -46q34 -41 34 -83z" />
    <glyph glyph-name="glyph121" unicode="&#x221a;" horiz-adv-x="1596" 
d="M42 724h177l149 -376l1004 1353l190 5l-1219 -1706z" />
    <glyph glyph-name="degree" unicode="&#x2234;" horiz-adv-x="920" 
d="M606 122q0 54 38.5 92t92.5 38t92 -38t38 -92t-38 -92t-92 -38t-92.5 38t-38.5 92zM336 678q0 54 38 92t92 38t92 -38t38 -92t-38 -92t-92 -38t-92 38t-38 92zM68 130q0 54 38 92.5t92 38.5t92 -38.5t38 -92.5t-38 -92t-92 -38t-92 38t-38 92z" />
    <glyph glyph-name="Udblacute" unicode="&#x2013;" horiz-adv-x="1133" 
d="M85 215v-215h977v215h-977z" />
    <glyph glyph-name="udblacute" unicode="&#x2014;" horiz-adv-x="1473" 
d="M66 215v-215h1340v215h-1340z" />
    <glyph glyph-name="wcircumflex" unicode="&#x2018;" horiz-adv-x="577" 
d="M253 1160q192 46 192 196q0 20 -3 41q2 186 -175 212q79 151 210 214q4 21 4 42q0 54 -23 99q-165 -12 -282 -167q-113 -150 -113 -336q0 -165 98 -282q9 -13 46 -15q44 -3 46 -4z" />
    <glyph glyph-name="Ycircumflex" unicode="&#x2019;" horiz-adv-x="605" 
d="M346 1974q-220 -37 -205 -224q-1 -15 -1 -28q0 -160 161 -196q-90 -144 -225 -198q-18 -78 10 -142q174 0 304 160q126 155 126 349q0 144 -80 253q-8 14 -45 19q-43 6 -45 7z" />
    <glyph glyph-name="ycircumflex" unicode="&#x201a;" horiz-adv-x="601" 
d="M363 447q-220 -37 -205 -223q-1 -15 -1 -29q0 -160 161 -195q-90 -145 -225 -198q-7 -31 -7 -59q0 -45 17 -83q174 0 304 160q126 155 126 348q0 145 -80 254q-8 13 -45 18q-43 6 -45 7z" />
    <glyph glyph-name="Zacute" unicode="&#x201c;" horiz-adv-x="1054" 
d="M763 1197q192 46 192 197q0 19 -3 40q2 186 -175 212q80 151 211 214q3 21 3 42q0 54 -23 99q-165 -12 -282 -167q-113 -150 -113 -336q0 -165 99 -282q9 -13 46 -15q43 -3 45 -4zM222 1197q192 46 192 196q0 20 -3 41q2 186 -175 212q79 151 210 214q4 21 4 42
q0 54 -23 99q-165 -12 -282 -167q-113 -150 -113 -336q0 -165 98 -282q9 -13 46 -15q44 -3 46 -4z" />
    <glyph glyph-name="zacute" unicode="&#x201d;" horiz-adv-x="1198" 
d="M967 2013q-220 -37 -205 -224q-1 -14 -1 -28q0 -160 161 -195q-90 -145 -225 -198q-7 -31 -7 -59q0 -45 17 -84q174 0 304 161q126 155 126 348q0 145 -80 254q-8 13 -44 18q-44 6 -46 7zM347 2004q-220 -37 -205 -224q-1 -15 -1 -28q0 -160 161 -196q-90 -144 -225 -198
q-18 -78 10 -142q174 0 304 160q126 155 126 349q0 144 -80 253q-8 14 -45 19q-43 6 -45 7z" />
    <glyph glyph-name="Zcaron" unicode="&#x2020;" horiz-adv-x="1038" 
d="M542 2000q-114 0 -114 -176q0 -95 33 -216q28 -107 56 -148q-186 68 -308 68q-138 0 -138 -98q0 -95 183 -95q139 0 268 51q-11 -358 -91 -354l94 -88l42 -1057l20 1057l90 93q-55 2 -84 144q-8 38 -28 209q151 -43 259 -43q150 0 148 91q-2 98 -124 98q-106 0 -286 -71
q65 222 65 375q0 160 -85 160z" />
    <glyph glyph-name="zcaron" unicode="&#x2021;" horiz-adv-x="1116" 
d="M579 1321q150 -42 258 -42q151 0 149 91q-2 98 -124 98q-106 0 -286 -71q65 222 65 374q0 160 -86 160q-113 0 -113 -175q0 -96 32 -217q29 -106 56 -147q-186 68 -307 68q-138 0 -138 -99q0 -95 182 -95q140 0 268 52q-10 -359 -91 -355q55 -2 84 -144q8 -38 27 -209
q-150 43 -258 43q-150 0 -148 -92q2 -97 124 -98q105 0 286 71q-66 -221 -66 -374q0 -160 86 -160q114 0 114 175q0 96 -33 217q-29 106 -56 148q186 -68 308 -68q138 0 138 98q0 95 -183 95q-139 0 -268 -52q11 359 91 355q-54 2 -84 144q-8 39 -27 209z" />
    <glyph glyph-name="aringacute" unicode="&#x2026;" horiz-adv-x="1272" 
d="M505 130q0 54 38 92.5t92 38.5t92 -38.5t38 -92.5t-38 -92t-92 -38t-92 38t-38 92zM937 130q0 54 38 92.5t92 38.5t92 -38.5t38 -92.5t-38 -92t-92 -38t-92 38t-38 92zM73 130q0 54 38 92.5t92 38.5t92 -38.5t38 -92.5t-38 -92t-92 -38t-92 38t-38 92z" />
    <glyph glyph-name="aeacute" unicode="&#x2030;" horiz-adv-x="1472" 
d="M480 1487q-140 -109 -191 -259q4 -134 80 -223q32 -6 61 -6q170 0 211 171q13 58 13 112q0 205 -174 205zM111 125q8 -59 49 -93.5t99 -31.5q86 135 238 425q167 318 245 449q144 242 276 381q-12 97 -97 129q-118 -41 -427 -567q-41 -69 -383 -692zM480 1277
q48 -2 48 -34q0 -14 -23 -69q-62 -44 -87 -44q-17 0 -17 20q0 6 2 15q9 84 77 112zM1223 534q-78 -26 -134 -97q-59 -74 -59 -155q0 -59 32 -109q16 -72 80 -72q16 0 35 5q140 56 216 170q1 24 1 43q0 97 -31 145q-39 60 -140 70zM1253 334q-13 -36 -43 -60.5t-53 -24.5
q-22 0 -22 21q0 17 16 46q48 58 94 58q18 0 18 -14q0 -11 -10 -26zM759 531q-78 -26 -134 -97q-59 -74 -59 -155q0 -59 32 -109q16 -72 80 -72q16 0 35 5q140 55 216 169q1 25 1 44q0 97 -31 144q-39 60 -140 71zM789 330q-13 -36 -43 -60.5t-53 -24.5q-22 0 -22 22
q0 17 16 46q48 58 94 58q18 0 18 -14q0 -11 -10 -27z" />
    <glyph glyph-name="ogonek" unicode="&#x2039;" horiz-adv-x="504" 
d="M407 0l-325 359l325 374v-262l-122 -112l122 -108v-251z" />
    <glyph glyph-name="tilde" unicode="&#x203a;" horiz-adv-x="496" 
d="M104 0l325 359l-325 374v-262l122 -112l-122 -108v-251z" />
    <glyph glyph-name="Zeta" unicode="!" horiz-adv-x="397" 
d="M80 1376q-21 -158 -21 -368q0 -95 5.5 -282.5t5.5 -280.5q11 -86 32 -147q30 -90 35 -112q62 20 96 20q40 85 78 389q38 309 38 570q0 217 -30 310q-67 117 -112 117q-35 0 -68 -83q-50 -120 -59 -133zM189 4q-132 -63 -132 -164q0 -29 11 -61q16 -112 129 -112
q13 0 27 1q115 83 115 209q0 127 -150 127z" />
    <glyph glyph-name="Eta" unicode="&#x22;" horiz-adv-x="517" 
d="M336 1885q-22 -70 -22 -227q0 -324 136 -216q2 26 21 183q16 127 16 194q0 52 -8 84q6 34 -68 47q-34 -16 -43 -27zM55 1871q-23 -70 -23 -227q0 -324 136 -216q2 26 21 182q16 128 16 195q0 52 -8 83q6 35 -67 48q-35 -17 -44 -28q-16 -18 -31 -37z" />
    <glyph glyph-name="Theta" unicode="#" horiz-adv-x="1690" 
d="M712 1628l-90 -284l-375 -1v-230h323l-195 -599h-322v-238h265l-111 -276h239l111 276h213l-111 -276h249l111 276h400v238l-343 1l195 598h343v230l-291 2l88 283h-247l-89 -284h-214l89 284h-238zM810 1113h212l-195 -599h-213z" />
    <glyph glyph-name="Iota" unicode="$" horiz-adv-x="820" 
d="M368 1805q-11 -145 0 -198q-231 -153 -231 -407q0 -267 231 -479q10 -114 7 -282q-4 -181 -23 -279q-26 -9 -51 -9q-51 0 -97 38q-37 54 -37 120q0 72 54 186.5t54 145.5q0 30 -25 47q-11 -2 -52.5 -3t-44.5 -44q-110 -139 -110 -313q0 -142 74 -236q80 -100 210 -97
q-11 -51 -11 -88q0 -108 93 -105q36 50 42 87q5 55 9 111l164 71q142 80 142 327q0 130 -40 149q-32 64 -113 142q-100 97 -122 127q0 75 -8 228t-8 230q0 76 5 140q48 0 95.5 -36.5t53.5 -85.5q18 -35 18 -72q0 -63 -54 -131q0 -58 7 -79q12 -37 55 -53q115 61 115 217
q0 107 -53 224q-50 112 -119 172q-3 0 -56 28q-37 0 -62 14q2 21 2 40q0 153 -114 153zM352 1386q12 -11 16 -24q-11 -45 -11 -102q0 -41 8 -124t8 -123q0 -38 -5 -70q-99 82 -99 237q0 133 83 206zM496 627q166 -150 166 -259q0 -113 -182 -179q0 57 11.5 167t11.5 167
q0 55 -7 104z" />
    <glyph glyph-name="Kappa" unicode="%" horiz-adv-x="1015" 
d="M433 1487q-140 -109 -191 -259q4 -134 80 -223q32 -6 61 -6q170 0 211 171q13 58 13 112q0 205 -174 205zM64 125q8 -59 49 -93.5t99 -31.5q86 135 238 425q167 318 245 449q144 242 276 381q-12 97 -97 129q-118 -41 -427 -567q-41 -69 -383 -692zM433 1277
q48 -2 48 -34q0 -14 -23 -69q-62 -44 -87 -44q-17 0 -17 20q0 6 2 15q9 84 77 112zM712 531q-78 -26 -134 -97q-59 -74 -59 -155q0 -59 32 -109q16 -72 80 -72q16 0 35 5q140 55 216 169q1 25 1 44q0 97 -31 144q-39 60 -140 71zM742 330q-13 -36 -43 -60.5t-53 -24.5
q-22 0 -22 22q0 17 16 46q48 58 94 58q18 0 18 -14q0 -11 -10 -27z" />
    <glyph glyph-name="Lambda" unicode="&#x26;" horiz-adv-x="1115" 
d="M158 1268q10 -70 60 -218q46 -140 54 -213q-214 -230 -214 -453q0 -124 66 -246q60 -87 134 -134q100 0 231 58q181 80 213 90q136 -147 296 -195q61 73 61 129q0 22 -7 52q-135 -1 -242 141q70 128 188 377q20 53 20 86q0 56 -57 56q-21 0 -50 -8q-10 -41 -87 -206
q-81 -175 -108 -197q-5 20 -124.5 225t-138.5 225q0 71 97 217.5t97 219.5q0 93 -113 169q-144 48 -204 48q-148 0 -172 -223zM487 1254l13 -80q-53 -126 -121 -182q0 38 -46 146q-46 105 -41 190q20 5 41 5q94 0 154 -79zM359 703q26 -64 127 -218q91 -138 115 -226
q-18 0 -76 -25t-92 -29q-45 -15 -81 -15q-98 0 -134 116q-30 45 -30 115q0 100 52 189q54 93 119 93z" />
    <glyph glyph-name="Mu" unicode="'" horiz-adv-x="221" 
d="M45 1938q-23 -70 -23 -227q0 -324 136 -216q2 26 21 182q16 128 16 195q0 52 -8 83q6 35 -67 48q-35 -17 -44 -28q-16 -18 -31 -37z" />
    <glyph glyph-name="Nu" unicode="(" horiz-adv-x="772" 
d="M446 2158q-184 -259 -292 -721q-104 -447 -104 -935q0 -415 78 -751q85 -364 248 -574q66 -85 137.5 -146.5t107.5 -61.5q25 0 25 34q0 56 -73 200q-320 636 -320 1314q0 386 104 778q73 275 202 561q65 143 131 285q20 66 20 106q0 60 -44 60q-45 0 -124 -60
q-69 -51 -96 -89z" />
    <glyph glyph-name="Xi" unicode=")" horiz-adv-x="851" 
d="M334 2142q184 -259 292 -721q105 -447 105 -935q0 -415 -78 -751q-85 -364 -248 -574q-67 -85 -138 -146.5t-107 -61.5q-25 0 -25 34q0 56 72 200q321 636 321 1314q0 386 -104 778q-74 274 -202 561q-66 142 -131 285q-20 66 -20 106q0 60 44 60q45 0 124 -60
q68 -51 95 -89z" />
    <glyph glyph-name="Omicron" unicode="*" horiz-adv-x="1218" 
d="M667 910zM567 910zM667 695zM567 695zM727 802zM508 802zM1132 621zM75 966zM733 1396zM474 1396zM733 191zM234 342zM972 1245zM234 1245zM75 621zM474 191zM972 342zM1132 966zM474 1396l93 -486zM474 1396h259l-66 -486l305 335l160 -279l-405 -164l405 -181
l-160 -279l-305 353l66 -504h-259l93 504l-333 -353l-159 279l433 181l-433 164l159 279l333 -335z" />
    <glyph glyph-name="Pi" unicode="+" horiz-adv-x="991" 
d="M923 668v178h-335v416h-186v-416h-345v-178h345v-417h186v417h335z" />
    <glyph glyph-name="Rho" unicode="," horiz-adv-x="542" 
d="M325 447q-220 -37 -205 -223q-1 -15 -1 -29q0 -160 161 -195q-90 -145 -225 -198q-7 -31 -7 -59q0 -45 17 -83q174 0 304 160q126 155 126 348q0 145 -80 254q-8 13 -45 18q-43 6 -45 7z" />
    <glyph glyph-name="Sigma" unicode="-" horiz-adv-x="1137" 
d="M80 494v-215h977v215h-977z" />
    <glyph glyph-name="Tau" unicode="." horiz-adv-x="381" 
d="M68 130q0 54 38 92.5t92 38.5t92 -38.5t38 -92.5t-38 -92t-92 -38t-92 38t-38 92z" />
    <glyph glyph-name="Upsilon" unicode="/" horiz-adv-x="1353" 
d="M74 121l1120 1418l109 -121l-1120 -1418z" />
    <glyph glyph-name="Phi" unicode="0" horiz-adv-x="1201" 
d="M612 1508q-141 -3 -244 -90q-64 -53 -159 -191q-167 -312 -167 -608q0 -214 88 -420q72 -68 158 -159q134 -33 248 -33q574 0 602 781q20 587 -526 720zM533 1255l100 -76q66 -49 103 -49q47 0 69 69q9 -19 44 -46q40 -32 52 -47q97 -190 97 -375q0 -98 -27 -195
q-22 -237 -201 -318q-121 -38 -218 -38q-286 0 -369 327q-15 102 -15 191q0 435 365 557z" />
    <glyph glyph-name="Chi" unicode="1" horiz-adv-x="905" 
d="M446 1675q-14 -23 -45 -51q-45 -43 -49 -47q-10 -64 -39 -177q-34 -129 -58 -174q-65 -120 -89 -255q45 -39 95 -39q20 0 41 6q26 102 51 204q32 117 75 194q-1 -76 16 -129q-11 -37 -11 -176q0 -54 2.5 -194.5t2.5 -215.5q0 -251 -24 -357q33 -22 66 -22q47 0 92 46
q-36 171 -36 412q0 144 17 410q17 283 19 397q-47 -3 -80 -26q-18 -13 -18 -6q0 4 2 22q25 107 30 172zM758 221q-214 -31 -423 -31q-67 0 -108 5q-58 -46 -101 -68q-7 -38 -7 -71q0 -30 6 -56q9 6 317 12.5t326 2.5q77 77 77 128q0 54 -87 78z" />
    <glyph glyph-name="Psi" unicode="2" horiz-adv-x="1090" 
d="M354 1561q-210 -90 -210 -265q0 -110 84 -254q82 72 82 173q0 62 -32 134q100 3 169 -19q185 -219 185 -473q0 -143 -58 -296l-34 -29q-93 99 -182 99q-75 0 -147 -70q-129 -150 -129 -329q0 -69 19 -142l33 -48h26l127 38l50 39l26 10l135 96l42 -20q86 -208 224 -208
q64 0 140 45q121 107 121 258q0 47 -11 98l-42 28q-115 -7 -136 -144q5 -45 34 -57q-29 -24 -59 -20q-125 51 -178 164q142 305 142 563q0 327 -226 581q-108 36 -178 48v0h-17zM261 426q142 -26 142 -66q0 -45 -175 -107q-5 27 -5 52q0 73 38 121z" />
    <glyph glyph-name="Omega" unicode="3" horiz-adv-x="1073" 
d="M327 1632q-218 -54 -218 -145q0 -48 61 -106q57 30 241 30q222 0 327 -30q-51 -87 -127 -130q-155 -207 -353 -300q-47 -77 -108 -120q3 -77 30 -140q55 3 72 13t45 57q189 104 313 104q136 0 197 -124q26 -91 26 -174q0 -173 -115 -306q-112 -35 -214 -35
q-188 0 -344 115q-96 -61 -96 -155q0 -26 8 -55q218 -125 397 -125q280 0 465 305q74 173 74 330q0 226 -153 420q-50 17 -146 40q214 175 214 392q0 43 -9 89q-115 29 -292 37q-148 6 -295 13z" />
    <glyph glyph-name="Iotadieresis" unicode="4" horiz-adv-x="858" 
d="M311 1676q0 -177 -72 -434q-70 -249 -161 -411q-23 -96 -23 -117q0 -40 39 -119q173 -93 334 -93q76 0 149 20q14 -24 19 -236q5 -203 -3 -246q39 -36 77 -36q55 0 108 72q9 63 9 148q0 136 -26 365q-19 171 -39 342q-155 -41 -145 -218q-42 -6 -82 -6q-160 0 -288 88
q108 368 217 627q2 17 16 83q8 41 8 90q16 86 16 145q-20 48 -56 55q-10 -22 -46 -57q-39 -37 -51 -62z" />
    <glyph glyph-name="Upsilondieresis" unicode="5" horiz-adv-x="1096" 
d="M393 1612q-156 -189 -152 -438q-67 -145 -67 -290q0 -38 5 -77q8 -2 16 -2q38 0 162.5 84t207.5 84q161 0 301 -272q0 -127 -5 -148t-84 -243q-91 -33 -180 -33q-242 0 -472 246q-27 -53 -89 -165q47 -73 94 -145q58 -82 120 -92q172 -112 314 -112q279 0 445 432
q32 144 32 263q0 292 -193 423q-75 109 -205 109q-106 0 -250 -74q4 104 27 178q3 -2 9 -2q38 0 173 31q130 29 157 42q87 -18 143 -59q110 78 110 207q0 41 -12 88q-79 0 -251.5 -21t-254.5 -21q-55 0 -101 7z" />
    <glyph glyph-name="alphatonos" unicode="6" horiz-adv-x="1019" 
d="M533 1505q-477 -236 -477 -689q0 -290 194 -617q51 -87 161.5 -142.5t226.5 -55.5q254 0 317 238q7 37 7 71q0 177 -190 340q-50 43 -265 79q-193 32 -288 28q23 256 135 406q121 160 317 151q-11 -38 -11 -65q0 -77 80 -75q81 142 81 239q0 76 -48 116q-42 34 -106 34
q-97 0 -134 -58zM809 199q-79 -15 -146 -15q-344 0 -398 407q73 -3 147 -6q163 -15 263 -72q141 -80 141 -239q0 -36 -7 -75z" />
    <glyph glyph-name="epsilontonos" unicode="7" horiz-adv-x="847" 
d="M161 1685q-77 -80 -77 -300q0 -129 33 -228q36 -109 99 -135q46 105 46 210q0 58 -14 116q118 -16 353 -41q-10 -27 -49 -168q-31 -110 -61 -158q-4 -99 -39 -173q-6 -1 -100 -12q-58 -6 -96 -29q3 -15 10 -92q5 -44 29 -91q28 13 53 13q34 0 65 -24q0 -106 -37 -276
q-43 -201 -50 -274q35 -34 64 -34q122 0 156 584q26 0 85 -24.5t96 -25.5q65 105 65 118q0 3 -2 20.5t-2 37.5q0 21 2 48q-108 58 -204 51q13 125 73 295q65 184 131 255q4 58 4 106t-4 88q-74 -19 -145 -19q-139 0 -296 81t-188 81z" />
    <glyph glyph-name="etatonos" unicode="8" horiz-adv-x="909" 
d="M449 1726q-158 0 -259 -144q-93 -133 -93 -318q0 -136 56 -246q61 -120 175 -179q-266 -245 -266 -495q0 -152 105 -248t282 -96q182 0 298 136q108 127 108 304q0 128 -62 235q-68 117 -196 182q67 80 107.5 210t40.5 262q0 172 -68 277q-78 120 -228 120zM449 1474
q140 0 140 -170q0 -93 -42.5 -196t-97.5 -147q-57 69 -103 169q-50 114 -50 198q0 146 153 146zM449 639q183 -147 183 -294q0 -140 -183 -140q-200 0 -200 139q0 75 60 162t140 133z" />
    <glyph glyph-name="iotatonos" unicode="9" horiz-adv-x="708" 
d="M36 1205q-1 3 -1 4q7 -62 15 -123q26 -138 77 -222q70 -117 173 -105q155 0 202 -11v-97q-5 -208 -5 -623q52 -39 85 -39q66 0 66 158l1 805q0 20 2 85q1 69 1 111q0 305 -88 369q-62 58 -160 58q-121 0 -219 -87q-114 -100 -149 -283zM339 1351q88 -16 139 -86
q45 -63 45 -144q0 -78 -41 -129q-44 -57 -118 -53q-83 0 -120 105q-14 68 -29 137q0 54 37 106.5t87 63.5z" />
    <glyph glyph-name="upsilondieresistonos" unicode=":" horiz-adv-x="463" 
d="M117 917q0 54 38 92t92 38t92.5 -38t38.5 -92t-38.5 -92t-92.5 -38t-92 38t-38 92zM109 130q0 54 38 92.5t92 38.5t92 -38.5t38 -92.5t-38 -92t-92 -38t-92 38t-38 92z" />
    <glyph glyph-name="alpha" unicode=";" horiz-adv-x="549" 
d="M189 917q0 54 38 92t92 38t92.5 -38t38.5 -92t-38.5 -92t-92.5 -38t-92 38t-38 92zM319 447q-220 -37 -205 -223q-1 -15 -1 -29q0 -160 161 -195q-90 -145 -225 -198q-7 -31 -7 -59q0 -45 17 -83q174 0 304 160q126 155 126 348q0 145 -80 254q-8 13 -45 18q-43 6 -45 7z
" />
    <glyph glyph-name="beta" unicode="&#x3c;" horiz-adv-x="1637" 
d="M1557 0l-3 198l-1056 486l1038 518l-4 208l-1485 -737z" />
    <glyph glyph-name="gamma" unicode="=" horiz-adv-x="1115" 
d="M70 787v-216h977v216h-977zM70 215v-215h977v215h-977z" />
    <glyph glyph-name="delta" unicode="&#x3e;" horiz-adv-x="1622" 
d="M48 0l3 198l1056 486l-1038 518l4 208l1485 -737z" />
    <glyph glyph-name="epsilon" unicode="?" horiz-adv-x="900" 
d="M238 1481q-31 -49 -62 -97q-44 -74 -60 -144q-35 -87 -35 -164q0 -115 79 -209q33 21 48 49q-6 35 -6 66q0 72 31 126q-6 77 67 119q62 36 158 36q111 0 165 -41q0 -29 10.5 -67.5t10.5 -58.5q0 -65 -85 -192q-61 -31 -163 -124q-109 -98 -163 -129q-24 -19 -52 -97
q-27 -72 -31 -114q-16 -59 -16 -177q0 -163 26 -244q44 -28 48 -28q15 0 39 22q0 51 10 151.5t10 149.5q21 26 127 217q47 29 146 78q55 84 112 150q98 93 134 228q16 63 31 127q3 426 -325 426q-118 0 -254 -59zM197 -163q-132 -62 -132 -163q0 -30 11 -62
q16 -112 129 -112q13 0 27 2q115 82 115 208q0 127 -150 127z" />
    <glyph glyph-name="zeta" unicode="@" horiz-adv-x="1852" 
d="M69 927q-27 -103 -27 -208q0 -348 249 -564q188 -163 542 -163q180 0 530 57q65 11 86 19q51 19 54 61q11 123 -88 123q-28 0 -64 -12q-176 -61 -405 -61q-231 0 -415 65q-207 75 -298 216q-32 93 -32 190q0 123 61 307q87 260 280 396q187 132 455 132q148 0 313 -41
q146 -37 223 -136q72 -92 72 -216q0 -204 -166 -356q-143 -131 -293 -160q-16 -3 -28 -3q-31 0 -31 22q0 32 82 138q84 110 88 134q8 44 8 82q0 236 -254 236q-210 0 -409 -149q-214 -160 -214 -363q0 -116 79 -228q26 -36 117 -36q149 0 293 56l29 -25q84 -64 200 -64
q158 0 337 111q160 100 231 214q128 205 128 388q0 236 -200 387q-194 145 -497 158q-39 2 -76 2q-774 0 -960 -709zM956 977q31 6 54 6q50 0 50 -35q0 -60 -133 -205q-60 -58 -121 -117q-47 -66 -161 -66q-64 0 -84 36q-13 26 -13 56q0 95 104 185q115 99 304 140z" />
    <glyph glyph-name="eta" unicode="A" horiz-adv-x="1342" 
d="M584 1517q-24 -53 -79 -136q-53 62 -110 61q-13 0 -25 -3q-26 -220 -161 -621q-133 -394 -154 -599q-2 -23 -2 -46q0 -171 118 -257q26 -19 47 -19q71 0 79 157q3 68 41 215q40 157 71 205q85 5 290 77q198 70 270 70q13 0 24 -2q2 -17 2 -34q0 -59 -27.5 -160.5
t-27.5 -156.5q0 -90 51 -184q21 -40 67 -66q42 -24 78 -24q56 0 56 55q0 48 -51 109q23 195 95 344q28 59 28 162q0 47 -7.5 142.5t-7.5 137.5q0 20 1 37q1 13 12 77q7 41 -1 65q-132 442 -386 495q-48 9 -89 9q-137 0 -202 -110zM877 1439q21 6 39 6q144 0 144 -332
q0 -76 -7 -133q-2 -15 -2 -32q0 -24 5 -69t5 -65q0 -23 -4 -41q-67 50 -157 50q-70 0 -216 -43q-142 -42 -207 -40q89 303 243 521q33 54 67 108q39 56 90 70z" />
    <glyph glyph-name="theta" unicode="B" horiz-adv-x="1694" 
d="M197 1665q-136 -95 -136 -211q0 -109 132 -218l37 4q-10 32 -10 62q0 113 125 182q116 64 283 64q142 0 258 -50q127 -54 183 -154q23 -42 23 -92q0 -88 -72 -191q-54 -79 -122 -131q-52 -40 -80 -55q-45 -25 -94 -28q3 22 3 42q0 134 -154 172l-32 -35
q-14 -78 -119 -388q-91 -269 -91 -391q0 -21 2 -38q5 -44 42.5 -94.5t85.5 -79.5q14 -9 26 -9q35 0 35 77q0 51 -11 81l13 6q1 61 55 156q25 45 67 225q38 166 64 193q46 -91 118 -150l60 2q40 59 118 59q45 0 127 -21q203 -51 302 -190q49 -68 49 -120q0 -110 -218 -156
q-130 -27 -184 -27q-100 0 -186 55q-23 15 -54 61q-27 41 -49 49q-14 4 -25 4q-54 0 -50 -89q20 -13 41 -44q24 -35 40 -49q192 -156 407 -156q48 0 101 8q217 31 281 104q51 56 51 127q0 95 -96 230q-185 261 -410 354q8 46 75 159q61 103 61 171q0 29 -9 57
q-76 256 -321 405q-215 131 -461 131q-177 0 -281 -73z" />
    <glyph glyph-name="iota" unicode="C" horiz-adv-x="1399" 
d="M416 1398q-92 -89 -229 -427q-148 -362 -148 -554q0 -58 16 -91q150 -327 549 -327q206 0 414 89q200 86 313 213q12 13 12 28q0 25 -36 43.5t-85 18.5q-19 0 -38 -3q-93 -55 -289 -115q-243 -74 -415 -74q-219 0 -270 126q20 364 220 716q223 392 538 492q39 -40 39 -96
q0 -66 -81 -214.5t-81 -212.5q0 -13 2 -24q39 -46 78 -46q20 0 35 14q66 61 127 200q64 148 64 261q0 43 -10 75q-62 195 -221 195q-211 0 -504 -287z" />
    <glyph glyph-name="kappa" unicode="D" horiz-adv-x="1620" 
d="M401 1608q23 -39 107 -105q62 -49 76 -130l51 -61q-7 49 -7 87q0 36 6 62q75 -49 336 -127q251 -75 359 -156q63 -25 63 -97q0 -86 -85 -225q-64 -106 -116 -159q-257 -259 -403 -300q11 75 11 190q0 36 -1.5 112t-1.5 114q0 263 65 391q-29 104 -40 122q-29 45 -113 59
q-60 -128 -116 -357q-68 -275 -68 -481q0 -190 61 -286q-26 -14 -138 -38q-122 -26 -185 -26q-33 0 -42 9q-23 21 -43 133q-18 100 -42 100q-5 0 -10 -2q-73 -36 -73 -138q0 -152 121 -231q106 -68 243 -68q218 0 483 163q237 147 430 369q190 218 235 390q6 23 6 57
q0 152 -68 240q-103 133 -310 221q-78 34 -383 129q-236 74 -350 148q-38 66 -70 66q-30 0 -30 -50q0 -57 42 -125z" />
    <glyph glyph-name="lambda" unicode="E" horiz-adv-x="1185" 
d="M381 1463q-68 -371 -301 -858q-33 -67 -33 -197q0 -209 91 -297q51 -49 149 -81q93 -31 179 -31q61 0 96 17q57 27 196 138q156 126 156 165q-1 92 -14 105q-40 13 -81 25q-13 4 -91 -39q-64 -35 -94 -56q-179 -124 -301 -124q-76 0 -116 55q22 94 66 211q52 135 95 187
q52 -60 101 -95q66 0 535 208q15 34 15 68q0 66 -52 111.5t-133 45.5q-33 0 -54 -29q-15 -24 -29 -49q-77 -20 -287 -112q-2 11 -2 23q0 42 36.5 135.5t36.5 144.5q0 65 -44 121q93 45 312 76.5t304 71.5q29 14 29 53q0 66 -57 120q-40 38 -132 38q-158 0 -576 -151z" />
    <glyph glyph-name="mu" unicode="F" horiz-adv-x="1102" 
d="M156 1395q2 -33 13 -65q13 -36 16 -59q8 -69 8 -141q0 -163 -62 -450q-65 -296 -68 -452q-2 -113 100 -205q27 -24 76 -23q24 88 33 306.5t35 314.5q29 -38 32 -41q14 -3 28 -7q72 -22 147 -22q160 0 304 92q22 13 22 38q0 76 -113 144q-3 2 -14 2q-56 0 -207 -30
q-157 -31 -182 -50q-3 33 -3 59q0 52 16 95q28 71 33 88q1 6 1 13q0 51 -58 174q79 -4 408 64q322 66 332 82q19 32 19 62q0 53 -83 152q-10 1 -26 1q-92 0 -411 -63q-388 -77 -396 -79z" />
    <glyph glyph-name="nu" unicode="G" horiz-adv-x="1472" 
d="M639 1612q-256 -168 -360 -349q-116 -204 -203 -681q-3 -16 -3 -37q0 -91 41 -195q46 -117 112 -152q77 -42 227 -42q138 0 268 32.5t140 67.5q4 12 4 27q0 36 -16 70.5t-35 34.5q-3 0 -6 -1q-118 -46 -227 -63q-98 -16 -168 -16q-205 0 -205 149q0 61 32 153
q7 231 175 497q175 277 363 314q16 -49 16 -93q0 -63 -47 -162q-3 -8 -3 -21q0 -36 22 -77q23 -44 48 -44q5 0 10 3q97 48 97 191q0 158 -97 302q-100 148 -185 92zM600 657q30 -72 63 -113q41 -4 104 9q69 15 98 15q22 0 43 -5q-25 -85 -25 -167q0 -173 102 -289
q96 -109 225 -109q105 0 187 79q8 8 8 22q0 50 -48 83q-44 -6 -84 -6q-125 0 -199 56l-41 -9q-19 37 -19 86q0 86 53 172q50 84 107 102q28 9 55 47.5t27 79.5q0 39 -29.5 67.5t-128.5 28.5q-144 0 -315 -50q-175 -50 -183 -99z" />
    <glyph glyph-name="xi" unicode="H" horiz-adv-x="1071" 
d="M820 1547q8 -43 8 -104q0 -114 -29 -320q-38 -273 -39 -288q-28 6 -61 6q-56 0 -138 -19l-122 -28q-3 14 -3 33q0 40 27.5 169t27.5 201q0 219 -221 279q2 -46 22 -220q16 -146 16 -230q0 -199 -84 -272q-19 -16 -59 -16q-14 0 -41 2t-39 2q-37 0 -43 -19q-2 -7 -2 -14
q0 -32 51 -71.5t100 -77.5q-62 -154 -62 -305q0 -36 4 -72q13 -121 92 -157l108 -26q33 109 48 288q11 151 21 302q129 41 311 41q11 -280 33 -382q60 -280 232 -246q-46 130 -19 518q40 564 40 625q0 216 -51 289q-54 77 -128 112z" />
    <glyph glyph-name="omicron" unicode="I" horiz-adv-x="966" 
d="M688 1570q-279 13 -301 13q-313 0 -318 -89q-1 -24 28.5 -85.5t51.5 -77.5q10 -8 35 -8q35 0 183.5 31t222.5 31q73 0 111 -24q27 -29 83 -65q36 -8 71 -3q48 6 51 38q2 14 2 27q0 92 -61 149.5t-159 62.5zM335 438q5 -70 72 -162q24 -8 41 -8q45 0 63 63
q118 426 152 698q2 13 2 26q0 120 -127 245q-56 5 -135 -380q-75 -363 -68 -482zM62 208q8 -61 16 -123q21 -82 81 -85q82 -5 219 6q157 13 218 13q107 0 198.5 -21t99.5 -2q10 23 10 47q0 105 -140 175q-47 -12 -119 -12q-62 0 -204 13.5t-209 13.5q-106 0 -170 -25z" />
    <glyph glyph-name="pi" unicode="J" horiz-adv-x="1475" 
d="M1281 1591q-75 -1 -485 -19q-414 -18 -414 -21q-3 -17 -3 -33q0 -90 68 -171q122 -5 244 -5q440 0 733 56q5 87 -33 140t-110 53zM858 1225q-96 -641 -96 -891q0 -43 3 -70q-49 48 -116 140q-35 47 -173 142q-131 -18 -257 -104q-153 -104 -153 -235q0 -38 13 -76
q21 -58 60 -99t74 -41q43 0 43 37q0 43 -61 112q138 211 260 211q150 0 318 -327q12 -24 26 -24q59 0 133 504l74 568q7 36 -29 110q-39 79 -77 79q-24 0 -42 -36z" />
    <glyph glyph-name="rho" unicode="K" horiz-adv-x="1181" 
d="M853 1650q-37 -38 -52 -56q-25 -31 -37 -62q-122 -318 -274 -422q-9 -6 -18.5 -28.5t-15.5 -22.5q-3 0 -5 2q-24 22 -24 60q0 17 7.5 64t7.5 77q0 119 -109 224q-51 -13 -49 -39q10 -141 -62 -649q-73 -516 -113 -547q-11 -9 -26 -44t-17 -55q-5 -59 27.5 -117t65.5 -58
q12 0 21 11q79 97 137 295q52 178 65 360q79 -30 127 -101q29 -43 78 -166q56 -141 105 -229q86 -154 190 -154q72 0 142 72q58 60 89 139q13 35 13 81q0 56 -19.5 99.5t-47.5 41.5q-55 -4 -89 -60q-54 -89 -60 -95q-12 -11 -29 -11q-34 0 -127 71q-37 29 -61 72
q-20 37 -96 224q-38 93 -123 153l-7 30q284 159 502 666l-37 121q-58 56 -70 56q-5 0 -9 -3z" />
    <glyph glyph-name="sigma1" unicode="L" horiz-adv-x="1084" 
d="M66 394q48 -245 246 -354q71 -38 174 -38q190 0 365 107q185 113 195 258q2 30 -27 63t-52 33q-6 0 -11 -3q-98 -78 -234 -144q-182 -90 -314 -90q-109 0 -173 64q-3 25 -3 58q0 152 91.5 571t91.5 499q0 22 -4 35q-15 54 -58.5 104t-83.5 56q-7 -136 -108 -615
q-98 -463 -98 -568q0 -22 3 -36z" />
    <glyph glyph-name="sigma" unicode="M" horiz-adv-x="1414" 
d="M243 1544q-12 -50 -40.5 -52.5t-36.5 -26.5q6 -25 18 -73q28 -94 28 -187q0 -84 -30 -221q-33 -147 -36 -218l-46 -282q-34 -209 -55 -254q17 -106 38 -150q33 -67 98 -60q55 188 104 497q39 260 78 519q234 -303 310 -794q12 -78 111 -96l142 548q109 396 166 450
q5 -72 35 -336q26 -221 26 -344q0 -102 -15 -177q39 -146 62 -179q39 -54 94 -54q42 0 42 43q0 22 -12 53q-33 80 -35 86q-16 46 -19 82q30 51 30 202q0 194 -43 455q-42 255 -88 360q-61 22 -98 22q-52 0 -88 -37q-48 -49 -152 -386q-96 -313 -116 -308q-88 212 -208 481
q-30 33 -78 101q-8 61 -34 194q-15 60 -55.5 117t-69.5 57q-20 0 -27 -32z" />
    <glyph glyph-name="tau" unicode="N" horiz-adv-x="1383" 
d="M1088.5 1578.5q-3.5 -16.5 -12.5 -16.5q37 -99 37 -287q0 -107 -16 -341.5t-16 -340.5q0 -124 15 -206q10 -54 64 -163q47 -94 44 -132q-1 -11 -6 -11q-9 0 -47 69q-43 78 -60 95q-185 192 -450 593.5t-369 508.5q-61 62 -163 77q2 -74 -18 -480q-21 -430 -21 -591
q0 -136 12 -168q45 -128 145 -185q11 313 22 625q18 534 37 547q3 1 5 1q12 0 27 -46q19 -59 23 -67q156 -268 384 -574q249 -335 423 -494q10 -3 17 -3q18 0 22 32q5 37 18 48q4 3 9 3q17 0 59 -52q39 -50 51 -44q34 14 20 61q-31 87 -61 174t-30 157q0 23 2 48
q-12 105 -12 227q0 92 10 274.5t10 275.5q0 87 -6 164.5t-58 163.5q-51 83 -88 83q-7 0 -13 -4.5t-9.5 -21z" />
    <glyph glyph-name="upsilon" unicode="O" horiz-adv-x="1303" 
d="M658 1594q-154 -137 -308 -275q-148 -155 -225 -387q-65 -200 -65 -375q0 -345 247 -548q32 -3 64 -3q335 0 600 266q278 278 265 652q-9 293 -170 485q-166 198 -408 185zM898 1346q209 -62 209 -328q0 -148 -70 -305q-117 -191 -273 -331q-202 -181 -378 -181
q-74 0 -140 33q-22 76 -22 191q0 240 77 468q84 250 207 290q-2 -26 -2 -50q0 -165 76 -165q15 0 18 38q4 46 11.5 55.5t16.5 9.5q11 0 39 -25t44 -25q15 -1 18 63q1 15 5 20q24 29 73 152q36 93 76 93q7 0 15 -3zM648 1165q18 -6 18 -40q0 -50 -27 -42q-15 5 -15 34
q0 55 24 48z" />
    <glyph glyph-name="phi" unicode="P" horiz-adv-x="947" 
d="M103 1468q-7 -22 49 -138q37 -76 75 -152q32 -79 77 -103l6 44q-1 26 -4 95q-3 59 -2 69l-24 20q18 64 106 64q111 0 232 -82q126 -86 121 -175q-12 -206 -248 -310q-20 -47 -61 -47q-13 0 -35.5 5.5t-29.5 5.5q-16 0 -19 -16q-1 -9 -1 -18q0 -98 104 -183
q59 -48 101 -19q74 51 171 173q104 131 158 174q5 30 5 62q0 215 -173 420t-384 234q-31 4 -123.5 -46t-100.5 -77zM115 1160q8 -73 8 -157q0 -108 -19 -321.5t-19 -312.5q0 -101 13 -182q22 -137 124 -187q11 -5 20 -5q35 0 63 68l-30 19q46 126 46 559q0 256 -28 354
q-37 129 -165 168z" />
    <glyph glyph-name="chi" unicode="Q" horiz-adv-x="1181" 
d="M66 685q9 -176 81 -398q91 -281 202 -287q117 -6 214 42q56 29 130 95q60 54 84 57q59 6 146 -81q7 -7 114 -133q43 18 47.5 26t28.5 114q-24 11 -110 110q-91 105 -91 138q0 4 1 6q169 341 169 557q0 85 -18 172q-13 60 -68 147q-48 75 -93 121q-104 330 -279 326
q-56 -1 -199 -138q-169 -163 -267 -362q-127 -259 -92 -512zM586 1328q-36 -125 -73 -249q-39 -140 -39 -242q0 -191 130 -396l20 -89q-138 -140 -242 -140q-55 0 -103 36q-20 15 -50 179q-30 161 -24 199q97 563 428 792q11 -6 11 -18q0 -18 -24 -44q-19 -21 -34 -28z
M824 1250q133 7 133 -237q0 -34 -3 -70q-21 -218 -121 -350q-11 -14 -47 -92q-26 -57 -47 -57q-10 0 -19 8q-105 91 -105 269q0 81 22 179q39 177 62 233q47 114 125 117z" />
    <glyph glyph-name="psi" unicode="R" horiz-adv-x="1227" 
d="M413 1595q-90 -61 -173 -227q-3 -7 -122 -281l20 -25q-57 -83 -55 -156q4 -103 30 -147q34 -55 68 -55q28 0 35 48q3 16 -13 41.5t-17 34.5l22 3q73 470 347 603q46 22 84 22q141 0 141 -246q0 -192 -89 -365q-100 -193 -252 -220q8 58 60 183q54 131 65 193q3 15 3 30
q0 72 -61 126q-50 44 -88 44q-9 0 -10 -4q-31 -136 -106 -400q-57 -152 -113 -304q-82 -227 -87 -310q35 -191 85 -191q12 0 25 8q55 33 56 187q0 144 61 161q5 2 12 2q65 0 218.5 -97t192.5 -160q122 -83 199 -83q106 0 170 157q13 31 22 84q11 60 17 80q2 4 2 10
q0 28 -59 90l-83 -53q-81 -177 -188 -180q-20 0 -41 29q-27 39 -32 43l-126 88q-109 79 -100 92q39 52 126 146.5t126 145.5q151 197 151 388q0 207 -179 414q-66 77 -228 77q-79 0 -116 -26z" />
    <glyph glyph-name="omega" unicode="S" horiz-adv-x="1022" 
d="M751 1641q-63 -6 -229 -227q-162 -218 -177 -304q-12 -68 -12 -132q0 -380 421 -578q19 -9 19 -32q0 -61 -93 -128q-109 -77 -257 -77q-102 0 -209 40q-9 32 -3 111q6 74 -6 104q-20 47 -94 57q-28 -82 -28 -163q0 -130 70 -214q77 -92 219 -98q34 -1 64 -1
q321 0 444 171q37 52 37 128q0 87 -46 161q-22 36 -206 177q-176 134 -180.5 156.5t-4.5 48.5q0 142 111 367q101 206 161 240q25 14 51 14q33 0 47 -21q37 -54 37 -109q0 -80 -86 -180q-64 -74 -127 -147q-23 -36 -23 -62q0 -45 53 -45q32 0 65 19q206 122 200 431
q-7 295 -196 295q-10 0 -22 -2z" />
    <glyph glyph-name="iotadieresis" unicode="T" horiz-adv-x="1154" 
d="M48 1383q-11 -25 -11 -49q0 -59 58 -122q20 -5 52 -5q196 0 598 127q407 129 371 184q-77 123 -161 118q-80 -116 -260 -155q-68 -14 -339 -33q-210 -15 -308 -65zM634 1072q-23 -10 -53 -365q-33 -396 -53 -468q-2 -7 -2 -18q0 -43 23 -104q24 -67 53 -89q48 -35 84 -35
q14 0 21 7q14 15 53 310q44 327 44 521q0 160 -32 191q-58 55 -115 55q-14 0 -23 -5z" />
    <glyph glyph-name="upsilondieresis" unicode="U" horiz-adv-x="1432" 
d="M35 514q1 -76 43 -198q40 -112 87 -190t174 -78q80 0 178 30q18 5 114 143q93 134 121 134q7 0 12 -7q123 -178 207 -256q99 -93 191 -93q66 0 137 47q11 7 47 99q39 96 39 131q0 7 -2 11q-22 46 -47 46q-4 -1 -6 -2q-133 -104 -234 -104q-131 0 -213 177q-5 10 -5 29
q0 55 81.5 358t81.5 429q0 93 -36 128q-68 65 -91 105l-22 -18q7 -185 -85 -488q-90 -296 -191 -432q-192 -260 -329 -260q-45 0 -81 31q-27 24 -27 101q0 75 53.5 377.5t53.5 466.5q0 111 -20 194q-25 107 -129 140q-17 -31 -60 -474q-44 -447 -42 -577z" />
    <glyph glyph-name="omicrontonos" unicode="V" horiz-adv-x="1345" 
d="M606 381q-8 -22 -34.5 -39t-48.5 -17q-19 0 -23 14q-10 34 -126 528q-87 371 -151 514q-81 180 -136 180q-11 0 -23 -5q-22 -10 -22 -57q0 -84 78 -303q49 -136 99 -271q22 -90 105 -385q88 -313 105 -356q17 -51 34 -103q34 -83 73 -83q57 0 121 174q128 342 290 737
q229 556 297 637q38 45 38 99q0 61 -45.5 110t-110.5 58q-141 -325 -520 -1432z" />
    <glyph glyph-name="upsilontonos" unicode="W" horiz-adv-x="1499" 
d="M1311 1562q-12 -2 -120 -509q-112 -524 -116 -649q-42 24 -132 257q-57 154 -114 307q-18 43 -18 67q0 12 6 43q8 38 11 74q4 42 -37.5 104.5t-78.5 62.5q-29 0 -43 -44q-43 -138 -191 -420q-158 -303 -227 -349q-2 78 26 350q26 243 43 353q1 10 1 20q0 77 -71 154
q-67 73 -123 73q-47 0 -47 -62q0 -18 4 -40q16 -82 16 -208q0 -149 -27 -450.5t-27 -390.5q0 -65 8 -99q43 -183 114 -183q69 0 180 183q95 174 190 347q108 192 165 205q50 -142 241 -441q211 -330 286 -330q14 0 22 13q-29 101 -29 182q0 59 20 146q22 92 24 145
q4 84 79 464q79 397 106 426q-41 117 -50 136q-32 65 -76 65q-7 0 -15 -2z" />
    <glyph glyph-name="omegatonos" unicode="X" horiz-adv-x="1014" 
d="M100 1557q-1 -124 44 -241q22 -56 99 -200q69 -129 99 -223q-48 -161 -251 -537q-28 -52 -28 -118q0 -81 37.5 -148.5t78.5 -67.5q72 0 72 211q21 23 105.5 195.5t97.5 225.5q32 -13 117 -160q134 -235 166 -284q106 -164 189 -210q27 66 27 106q0 14 -4 23
q-44 95 -230 374q-176 264 -202 335q28 103 156 259q123 150 125.5 167t2.5 34q0 64 -28 110q-25 43 -55 43q-9 0 -17 -6q-56 -39 -142 -210q-89 -175 -144 -220q-16 80 -132 297q-127 237 -183 245z" />
    <glyph glyph-name="glyph445" unicode="Y" horiz-adv-x="1212" 
d="M1018 1626q-13 -29 -190 -349t-180 -322q-5 -2 -237.5 262t-279.5 327q-67 7 -67 -90q0 -87 40 -123q83 -76 235 -269q174 -221 225 -275q9 -10 9 -30q0 -67 -120 -309q-118 -238 -116 -271q11 -154 89 -175q50 -14 160 292q132 366 146 389q70 111 231 401
q192 345 192 389q1 64 -28 116.5t-69 52.5q-21 0 -40 -16z" />
    <glyph glyph-name="afii10023" unicode="Z" horiz-adv-x="1429" 
d="M65 1557q-24 -1 -29 -37q-4 -39 -14 -44l77 -96q28 -120 139 -472q24 -76 75 -76q24 0 46 17q-19 124 -62 376q-3 15 -23.5 43t-20.5 37q0 6 6 9q32 19 95 19q75 0 267 -38q183 -37 244 -33q1 -58 -246 -354q-271 -324 -311 -419q-24 -58 -78 -111t-79 -112
q-30 -69 -30 -110q0 -42 33 -76q9 -9 88 -73q11 -9 21 -9q18 0 35 32l30 58q2 8 52.5 83.5t54.5 79.5q106 -11 303 -83q177 -65 310 -65q54 0 111 8q223 30 223 222q0 109 -73 265q-9 17 -40 38q-34 21 -57 21q-30 0 -26 -37q5 -49 19 -136q11 -69 11 -96q0 -63 -53.5 -83.5
t-216.5 -16.5q-71 1 -216 40t-221 78q25 85 294 406q254 304 346 376q9 8 51 19q26 7 26 35q0 32 -27 109q-48 36 -95 73l-120 8q-160 18 -320 37q-219 25 -334 25q-39 0 -70 -3l-10 29q-10 -1 -19 -1q-27 0 -85 20q-54 20 -81 18z" />
    <glyph glyph-name="afii10051" unicode="[" horiz-adv-x="850" 
d="M726 2108v-175l-419 2v-2784h416v-176h-619v3133h622z" />
    <glyph glyph-name="afii10052" unicode="\" horiz-adv-x="1493" 
d="M1291 0l-1225 1328l137 89l1225 -1328z" />
    <glyph glyph-name="afii10053" unicode="]" horiz-adv-x="851" 
d="M102 2108v-175l418 2v-2784h-415v-176h619v3133h-622z" />
    <glyph glyph-name="afii10054" unicode="^" horiz-adv-x="686" 
d="M237 2003h202l196 -336h-101l-196 168l-185 -168h-101z" />
    <glyph glyph-name="afii10055" unicode="_" horiz-adv-x="1138" 
d="M0 0v-215h1190v215h-1190z" />
    <glyph glyph-name="afii10056" unicode="`" horiz-adv-x="405" 
d="M40 1953q1 -78 86 -254q101 -207 200 -207q17 0 34 7q-30 107 -61 214q-41 142 -87 205q-6 30 -103 69q-37 -3 -44 -10q-13 -12 -25 -24z" />
    <glyph glyph-name="afii10057" unicode="a" horiz-adv-x="1072" 
d="M85 484q-12 -86 -12 -160q0 -160 54 -247q52 -82 139 -82q138 0 286 189q22 -11 45 -59q27 -52 48 -69q50 -42 101 -83q57 -41 103 -41q63 0 128 72q31 34 31 59q0 41 -63 41q-18 0 -47 -7t-44 -7q-73 0 -133 80q-86 74 -86 199q0 41 27 181q15 80 15 147q0 126 -52 194
q-47 63 -126 63q-117 0 -232 -122q-127 -133 -182 -348zM436 712q39 -77 39 -177q0 -140 -68.5 -260t-161.5 -133q-37 94 -37 184q0 241 228 386z" />
    <glyph glyph-name="afii10058" unicode="b" horiz-adv-x="991" 
d="M349 1960q-11 -35 -11 -182q0 -164 17 -565q16 -362 13 -402q-1 -102 -3 -204q-4 -128 -32 -163q-44 -69 -89 -138q-53 -73 -156 -116q-7 -14 -7 -31q0 -54 76 -159q76 29 102 57q9 13 31 39q78 77 159 131q7 4 29 -49q26 -63 61 -77q55 -21 110 -21q129 0 205 104
q69 93 69 226q0 137 -65 298q-63 155 -146 237q-31 30 -80 45q-55 17 -69 27q-6 -4 -11 -4q-37 0 -37 229q0 37 1 124t1 135q0 321 -44 443q-23 7 -45 14q-40 12 -59 12q-17 0 -20 -10zM539 793q16 9 35 9q71 0 136 -100q67 -103 67 -223q0 -42 -10 -81q-36 -141 -121 -141
q-83 0 -173 118q-2 47 19 215q23 191 47 203z" />
    <glyph glyph-name="afii10059" unicode="c" horiz-adv-x="933" 
d="M301 696q-57 -45 -142 -212q-92 -180 -92 -275q0 -29 10 -46q93 -161 341 -161q128 0 257 44q125 42 194 105q4 4 4 9q0 20 -59.5 44.5t-94.5 19.5q-47 -23 -147 -48q-123 -31 -210 -31q-112 0 -138 53q10 152 112 299q113 164 274 205q19 -17 19 -40q0 -27 -45 -95
q-42 -64 -36 -93q12 -12 44 -11t47 12q41 30 79 99q40 74 40 130q0 21 -7 37q-38 97 -137 97q-131 0 -313 -142z" />
    <glyph glyph-name="afii10060" unicode="d" horiz-adv-x="973" 
d="M626 1896q13 -41 13 -239q0 -168 -12 -551q-10 -334 -8 -373q2 -102 3 -204q5 -129 32 -163l90 -138q53 -73 155 -117q7 -13 7 -31q0 -54 -76 -158q-76 29 -101 57q-9 13 -32 38q-77 78 -159 131q-6 5 -28 -48q-26 -63 -62 -77q-55 -22 -110 -22q-129 0 -205 104
q-68 94 -68 227q0 137 65 297q62 155 146 237q30 31 80 46q55 17 68 26q6 -3 11 -3q36 0 46 185q7 197 13 393q12 250 51 356q6 1 33 18t37 17q8 0 11 -8zM449 715q-17 9 -36 9q-70 0 -135 -100q-67 -104 -67 -223q0 -43 9 -81q36 -142 121 -142q84 0 174 118q2 48 -19 216
q-24 190 -47 203z" />
    <glyph glyph-name="afii10061" unicode="e" horiz-adv-x="1042" 
d="M582 950q-142 -57 -215 -104q-6 -4 -81 -64q-229 -184 -229 -434q0 -78 21 -163t106 -137q77 -47 169 -47q73 0 286 66q203 63 299 56q53 15 53 68q0 43 -33.5 81t-72.5 33q-57 -8 -277 -77q-196 -61 -289 -61q-73 0 -113 30q-36 27 -36 92q0 73 40 169q36 89 49 82
q124 -67 252 -67q209 0 286 181q14 33 14 71q0 85 -60 157t-138 72q-15 0 -31 -4zM596 789q15 2 29 2q78 0 78 -44q0 -18 -20 -39q-48 -49 -128 -62l-134 -12q-19 -2 -32 -2q-28 0 -28 11q0 22 107 83q95 54 128 63z" />
    <glyph glyph-name="afii10062" unicode="f" horiz-adv-x="994" 
d="M608 1660q-77 -22 -153 -44q-148 -44 -233 -105q-120 -88 -120 -212q0 -117 108 -266q20 4 39 4q21 0 39 -4q-52 80 -52 153q0 124 142 204q125 70 282 70q43 0 80 -6q12 -31 12 -83q0 -144 -78 -353.5t-153 -267.5q-28 -21 -232 -70q-210 -50 -235 -65q27 -139 150 -139
q75 0 186 52q-7 -37 -68 -158q-57 -113 -63 -181q25 -62 51 -125q32 -62 75 -62q37 0 88 43q6 25 6 50q0 50 -26 96l90 206q58 127 109 193q22 2 123 27q93 23 133 23q14 0 24 -2q4 24 4 45q0 119 -120 155l-4 23q84 158 84 375q0 182 -58 311q-61 136 -155 136
q-37 0 -75 -23z" />
    <glyph glyph-name="afii10145" unicode="g" horiz-adv-x="1343" 
d="M520 953q-372 -164 -443 -462q-3 -10 -3 -21q0 -44 73 -150q80 -116 187 -116q99 0 278 107q4 2 8 2q9 0 9 -21q0 -66 -29 -94q-405 -394 -399 -826q2 -101 65 -224q71 -140 163 -169q4 -1 9 -1q48 0 116 40q87 51 114 129q122 338 122 588q0 102 -22 201
q-23 107 -23 112q124 100 248 201q156 122 265 169q38 16 25 65q-31 127 -162 134q-267 -266 -329 -266q-6 0 -8 3q-13 17 -13 50q0 45 32.5 161t32.5 153q0 27 -11 39q-60 68 -119 136q-70 72 -132 72q-27 0 -54 -12zM383 368q-44 -8 -76 -8q-78 0 -78 47q0 67 136 196
q126 121 186 136q26 23 43 23q24 0 24 -45q0 -89 -66 -203q-75 -130 -169 -146zM584 -83q23 16 40 16q41 0 41 -91q0 -130 -71 -342q-74 -217 -152 -304q-14 -3 -26 -3q-71 0 -71 104q0 131 100 369q92 219 139 251z" />
    <glyph glyph-name="afii10017" unicode="h" horiz-adv-x="1394" 
d="M625 1753q-66 -113 -96 -436q-13 -149 -27 -537q-9 -263 -29 -265q-101 -88 -155 -88q-51 0 -103 49q-24 22 -38 85q-12 54 -29 59q-8 3 -17 3q-48 0 -48 -57q0 -12 4 -26q42 -173 196 -265q80 -49 121 -49q30 0 49 23l35 -26q11 -89 45 -155q36 -69 74 -69q5 0 10 1
q-10 -3 -10 115q0 251 86 305q6 4 14 4q53 0 190 -155q77 -91 153 -182q74 -72 134 -72q33 0 55 24q70 79 70 196q0 110 -62 232q-8 15 -19 15q-27 0 -41 -50q-24 -87 -36 -112q-24 -48 -63 -48q-31 0 -77 29q-60 111 -162 193q-81 58 -161 116q-17 13 -17 29t25.5 47.5
t28.5 46.5q31 126 63 253q44 199 44 341q0 153 -50 254q-59 117 -71 136q-27 44 -56 44q-13 0 -30 -8zM697 1433q0 -25 7 -120q5 -87 5 -138q0 -182 -69 -188q-4 63 -4 147q0 303 50 303q5 0 11 -4z" />
    <glyph glyph-name="afii10018" unicode="i" horiz-adv-x="1007" 
d="M567 1502q-2 -111 40 -114q-16 -34 -53 -34q-2 115 -101 121q-62 -102 -62 -182q0 -71 55 -100q84 -44 144 -44q147 0 147 240q0 54 -9 113q-4 30 -48 36q-36 2 -73 5zM383 602q-9 -47 -156 -240q-143 -187 -143 -189q23 -83 152 -145q4 27 80 133t96 106q3 0 4 -2
q138 -268 290 -268q43 0 92 17q93 32 116 153q10 52 10 81q0 71 -50 101q-3 2 -6 2q-12 0 -87 -92.5t-126 -92.5q-42 0 -76 53q-39 60 -39 152q0 80 37 231q38 160 41 212q4 76 -37 122q-39 42 -98 42q-18 0 -37 -5q-20 -128 -63 -371z" />
    <glyph glyph-name="afii10019" unicode="j" horiz-adv-x="1017" 
d="M663 507q-14 -70 -258 -217q-237 -144 -235 -172q6 -107 79 -107q75 0 245 127q187 139 206 145q18 -380 18 -439q0 -527 -102 -605q-119 -91 -213 -91q-160 0 -254 264l-72 16q17 -160 122 -301q118 -158 265 -158q27 0 54 6q208 45 290 284q62 180 62 521q0 89 -5 262
t-5 251q0 218 30 331q4 15 4 32q0 44 -24.5 78t-57.5 34q-98 0 -149 -261zM752 1360q-2 -111 40 -114q-17 -34 -54 -34q-1 114 -100 121q-62 -103 -62 -182q0 -71 55 -100q83 -44 144 -44q147 0 147 240q0 54 -9 113q-4 29 -48 36q-36 2 -73 4z" />
    <glyph glyph-name="afii10020" unicode="k" horiz-adv-x="1412" 
d="M671 1787q-32 -114 -51 -395q-20 -306 -45 -426q-44 -217 -149 -294q-59 -89 -150 -89q-48 0 -105 24q1 82 -52 130q-54 -17 -66 -80q81 -313 328 -302q-21 -71 -21 -131q0 -142 119 -224q6 63 98 323q87 243 80 278q20 -11 173 -232q169 -242 189 -266
q109 -126 184 -126q65 0 105 96q19 56 39 111q4 64 -13 140q-22 100 -67 100q-6 0 -13 -2q-23 -182 -110 -182q-131 0 -323 334q1 17 79 27q94 12 143 55q76 69 76 227q0 55 -8 120q-28 200 -168 200q-50 0 -116 -26q-32 -14 -65 -27q4 163 8 226q9 136 31 207
q-77 190 -130 204zM782 834q64 138 187 145q18 -10 18 -30q0 -38 -50 -76q-56 -41 -127 -41q-14 0 -28 2z" />
    <glyph glyph-name="afii10021" unicode="l" horiz-adv-x="1443" 
d="M876 1659q-146 -150 -248 -499q-95 -325 -95 -602q0 -38 3 -72q-65 -36 -198 -184q-123 -138 -251 -196q-24 -10 -24 -34q0 -31 37 -76q30 -38 58 -57q114 27 240 160q147 155 180 173q94 -275 321 -275q164 0 336 132q159 122 153 200q-5 58 -87 59q-21 -43 -164 -115
q-161 -82 -279 -82q-195 0 -182 233q35 27 55 71l34 86q83 189 154 415q95 302 95 465q0 39 -5 69q-26 131 -113 131q-10 0 -20 -2zM830 1239q6 -7 18 -12q2 0 2 -3q0 -21 -48 -146q-42 -109 -59 -145q-36 -76 -46 -76q-3 2 -3 10q0 48 55 205q56 163 81 167z" />
    <glyph glyph-name="afii10022" unicode="m" horiz-adv-x="2031" 
d="M67 546q27 -21 61 -21q49 0 153 64t147 64q48 0 79 -54q21 -37 21 -79t-32.5 -133t-32.5 -144q0 -22 4 -44q15 -73 51 -104q27 -23 110 -46q38 194 85 293q71 150 196 187q6 2 14 2q17 0 82 -32q25 -65 25 -102q0 -31 -22 -54.5t-22 -45.5q0 -10 3 -23q19 -87 69 -136
q42 -41 87 -41q42 0 47 33q53 336 312 336q26 0 55 -3q28 -53 28 -127q0 -14 -1 -41.5t-1 -41.5q0 -140 135 -250q12 -10 49 -10q60 0 129 21q73 22 70 44q-16 161 -159 161q-28 0 -61 -8q1 7 1 17q0 96 -67 243q-75 166 -157 187q-62 15 -120 15q-176 0 -298 -145
q-124 195 -264 195q-106 0 -222 -113q-151 207 -332 207q-97 0 -160.5 -65t-63.5 -170q0 -18 2 -36z" />
    <glyph glyph-name="afii10024" unicode="n" horiz-adv-x="1542" 
d="M255 804q-199 -74 -199 -203q0 -70 64 -134q7 28 95 87q98 65 164 65q33 0 53 -18q37 -34 37 -76q0 -37 -55 -138t-55 -170q0 -84 65 -168q54 17 126 73q76 61 91 105q87 266 302 266q37 0 78 -7q3 -41 -19 -128q-23 -92 -23 -135q0 -98 83 -164q75 -61 223 -61
q97 0 144 32.5t47 91.5q0 85 -92 93q-146 -57 -186 -57q-44 0 -43 37q1 65 14 146q13 78 13 108q0 95 -88 227q-102 28 -193 28q-197 0 -343 -131q-91 242 -244 242q-30 0 -59 -11z" />
    <glyph glyph-name="afii10025" unicode="o" horiz-adv-x="1091" 
d="M397 1099q-315 -277 -315 -622q0 -71 15 -169q13 -89 12 -110q66 -131 67 -132q40 -60 99 -60q32 0 74 16q249 98 399 394q23 22 131 93q100 66 110 80q44 63 44 117q0 62 -58 62q-23 0 -54 -11q4 41 4 78q0 187 -107 282q-62 55 -118 55q-63 0 -126 -69q-53 27 -97 27
q-46 0 -80 -31zM558 492q5 -11 5 -25q0 -68 -95.5 -151t-169.5 -83q-60 0 -69 66q-6 48 -6 94q0 250 181 446q33 -5 39 -60q13 -110 18 -129q24 -90 97 -158zM663 944q39 17 74 17q99 0 99 -101q0 -98 -113 -201q-68 -61 -102 -61t-34 59q0 63 36 179q32 105 40 108z" />
    <glyph glyph-name="afii10026" unicode="p" horiz-adv-x="1287" 
d="M590 1179q-88 12 -88 -350q0 -43 1 -123.5t1 -112.5q0 -127 -15 -144q-62 -69 -186 -98q-109 -18 -218 -37q-25 -5 -25 -30q0 -48 65 -97q75 -58 175 -58q88 0 180 47q4 -20 4 -55q0 -76 -31.5 -358t-31.5 -405q0 -142 33 -183q58 -71 111 -71q35 0 39 42q28 394 57 788
q50 584 126 632q45 29 111 29q88 0 122 -57q39 -67 39 -122q0 -68 -62 -122q-24 -21 -115 -75q-61 -36 -59 -61q5 -65 51 -109q43 -42 99 -42q26 0 50 10q186 86 186 303q0 171 -118 304q-129 146 -332 157q3 162 -41 271q-46 115 -128 127z" />
    <glyph glyph-name="afii10027" unicode="q" horiz-adv-x="1736" 
d="M466 861q-133 -47 -254 -179q-140 -153 -140 -308q0 -113 79 -211q65 -81 143 -81q76 0 190 88q146 113 167 123q-35 -89 -62 -324q-28 -241 -28 -476q0 -429 91 -518q86 23 205 278q72 155 199 502q115 317 152 384q115 210 254 210q59 0 124 -37q13 -8 24 -8
q27 0 27 48q0 47 -24 100q-27 58 -65 77q-83 42 -157 42q-178 0 -311 -257q-63 -121 -193 -513q-104 -314 -183 -384q20 29 28 198q4 115 8 229q4 50 75 342q66 271 66 384q0 58 -15 88q-41 88 -93 88q-28 0 -46 -28q-119 151 -220 151q-21 0 -41 -8zM660 652
q15 -84 -171 -226q-170 -128 -265 -147q21 90 131.5 223.5t188.5 158.5q2 0 116 -9z" />
    <glyph glyph-name="afii10028" unicode="r" horiz-adv-x="1586" 
d="M408 555q-8 -18 -45 -57q-40 -42 -53 -63q-73 -60 -146 -121q-102 -90 -102 -140q0 -30 59 -75q51 0 210 124q163 128 184 195q84 24 161 24q137 0 209 -76q0 -36 -20 -94.5t-21 -86.5q-5 -189 80 -189q61 0 142 103q62 0 240 160q189 169 189 262q0 20 -10 34
q-19 27 -52 27q-57 0 -167 -84q-71 -57 -143 -115q-34 -33 -106 -77q-62 320 -350 320q-18 0 -37 -2q0 68 102.5 242.5t103.5 188.5q5 99 -82 146q-152 -88 -248 -239q-103 -160 -103 -332q0 -38 5 -75z" />
    <glyph glyph-name="afii10029" unicode="s" horiz-adv-x="926" 
d="M664 1138q-58 -4 -210 -158q-149 -150 -163 -210q-33 -147 -33 -209q0 -99 68 -163q72 -67 260 -137q17 -6 17 -22q0 -33 -58 -66q-68 -38 -168 -38q-78 0 -165 25q-10 52 -19 103q-21 57 -116 66q-26 -56 -26 -112q0 -91 64 -149q71 -64 201 -68q344 -11 466 118
q34 36 34 89q0 60 -42 112q-20 25 -189 122q-162 93 -166 108.5t-4 33.5q0 95 98 239q88 129 137 150q50 21 73 -4q28 -31 28 -62q0 -45 -65 -102l-96 -84q-12 -14 -12 -30q0 -32 35.5 -59.5t75.5 -27.5q17 0 32 6q94 42 126 140q20 65 17 186q-7 217 -200 203z" />
    <glyph glyph-name="afii10030" unicode="t" horiz-adv-x="1429" 
d="M924 1491q-50 16 -153 -361q-22 -82 -109 -450q-11 -92 -40 -149t-98 -118q-61 -55 -200 -131q-154 -84 -226 -91q-16 -29 -16 -48q0 -17 49 -98q19 -4 39 -4q104 0 249.5 99.5t154.5 99.5q4 0 6 -2q33 -23 53 -90q22 -74 45 -100q44 -47 145 -47q88 0 229 35
q44 11 136 91q104 90 104 147q0 36 -45 54q-20 7 -190 -89q-180 -103 -253 -103q-108 0 -66 189q11 18 65.5 176t60.5 185q20 -13 54 -13q108 0 293 110q177 106 168 145q-4 20 -28 72q-26 57 -40 70q-233 -106 -335 -185l-59 -24q-3 12 102 421q3 11 3 27q0 53 -27 108
q-30 61 -71 74z" />
    <glyph glyph-name="afii10031" unicode="u" horiz-adv-x="1358" 
d="M69 287q1 -48 41 -123q36 -69 79 -116.5t160 -47.5q74 0 163 18q17 3 105 88q85 83 111 83q7 0 11 -4q221 -215 365 -215q61 0 126 28q10 5 44.5 62.5t34.5 79.5q0 4 -2 7q-27 38 -49 27q-122 -64 -214 -64q-121 0 -196 108q-4 7 -4 19q0 33 74.5 219.5t74.5 264.5
q0 57 -33 78q-62 40 -83 65l-21 -11q7 -114 -77 -300q-83 -182 -175 -266q-177 -160 -303 -160q-99 0 -99 81q0 46 49 232t49 288q0 103 -32.5 146.5t-104.5 58.5q-15 -19 -55 -292.5t-39 -353.5z" />
    <glyph glyph-name="afii10032" unicode="v" horiz-adv-x="1216" 
d="M561 291q-32 -33 -74 -33q-13 0 -21 7q-84 75 -141 274q-66 232 -102 287q-72 112 -121 112q-10 0 -20 -3q-20 -6 -20 -35q0 -53 70 -189l88 -170q41 -124 83 -247q73 -202 105 -216q10 -5 19 -5q19 0 47.5 25.5t45.5 25.5q8 0 17 -4q33 -16 64 -75q27 -48 65 -48
q25 1 44 25q16 22 13 41q-30 29 -30 85q0 148 191 450q162 257 251 331q33 28 33 62q0 38 -40 68.5t-99 36.5q-27 -44 -233 -431q-156 -292 -235 -374z" />
    <glyph glyph-name="afii10033" unicode="w" horiz-adv-x="1237" 
d="M1062 998q-9 -2 -92 -326q-86 -334 -89 -414q-32 15 -101 164l-88 196q-14 28 -14 43q0 8 5 28q6 24 8 47q3 27 -28.5 67t-60.5 40q-22 0 -33 -29q-32 -88 -146 -268q-122 -194 -174 -223q-2 50 20 224q19 155 32 225q2 6 2 13q0 49 -53.5 97t-96.5 48q-35 0 -35 -40
q0 -11 3 -25q11 -52 11 -133q0 -95 -20 -288t-20 -249q0 -42 6 -64q32 -117 87 -117q66 0 212 228q149 233 198 242q39 -90 186 -282q162 -210 219 -210q11 0 17 8q-22 65 -22 116q0 38 15 93q17 59 18 93q3 54 61 297q61 253 81 272q-31 74 -38 86q-24 42 -58 42
q-6 0 -12 -1z" />
    <glyph glyph-name="afii10034" unicode="x" horiz-adv-x="1172" 
d="M219 865q-149 -40 -149 -164q0 -73 53 -150q36 -8 50 -8q12 0 12 6q0 3 -5 14t-5 17q0 13 13 21q89 59 161 59q53 0 87 -35t34 -88q0 -73 -149 -180q-162 -116 -179 -166q-10 -32 -10 -54q0 -42 38 -71q15 -12 37 -12q72 0 212.5 117t132.5 118q62 -73 124 -145
q137 -144 224 -144q71 0 129 29q72 36 71 99q0 29 -15 59t-33 30q-40 0 -203 74q-155 71 -160 67q21 50 132 107q178 92 189 99q97 63 97 135q0 28 -14 60q-27 60 -62 60q-18 0 -63 -15q-120 -42 -208 -119q-108 -94 -151 -117q-52 138 -136 219q-88 86 -191 86
q-31 0 -63 -8z" />
    <glyph glyph-name="afii10035" unicode="y" horiz-adv-x="1109" 
d="M174 770q-50 -282 -50 -356q0 -65 12 -117q118 -170 225 -170q51 0 101 38q29 25 90 57q5 -52 13 -157q-155 -55 -289 -230q-147 -193 -147 -392q0 -179 128 -321q131 -145 255 -145q42 0 75 20q132 80 132 493q0 69 -4 197t-4 178q0 59 4 99q108 60 287 141q34 10 34 43
q0 37 -35 85q-33 45 -52 43q-11 -1 -125 -57.5t-133 -56.5q-4 0 -5 2q-13 19 -13 37q0 21 19 48q29 41 30 44q90 178 78 256q-11 68 -130 177q-76 -47 -99 -125q-12 -39 -14 -133q-2 -74 -24 -98q-106 -111 -183 -111q-34 0 -67 19q-14 7 -14 35q0 48 44.5 170t44.5 130
q1 74 -52 136q-48 58 -93 58q-33 0 -39 -37zM588 -298q0 -190 -30 -326q-43 -192 -135 -192q-39 0 -84 34q-39 28 -39 102q0 89 51 216q45 113 75 135q9 7 64 98q49 82 71 82q27 0 27 -149z" />
    <glyph glyph-name="afii10036" unicode="z" horiz-adv-x="1373" 
d="M684 881q-5 2 -210 -8q-212 -10 -242 -15q-34 -7 -34 -40q0 -22 23 -86.5t24 -95.5q16 36 296 20q-28 -86 -234 -322q-194 -222 -192 -249q7 -75 72 -162q49 1 175 75t181 74q36 0 62 -22q4 -10 4 -22q0 -63 -161 -258q-175 -213 -207 -334q-24 -90 -24 -168
q0 -142 74 -226q68 -77 171 -77q143 0 247 138q119 157 119 427q0 134 -32 287q-23 65 -16 81q6 14 247 127q248 115 272 143q-20 108 -91 161q-50 -1 -250 -106q-168 -88 -248 -141q-6 27 -89 122q-79 90 -79 119q0 9 5 15q5 20 137 177.5t135 183.5q1 9 1 19q0 58 -40 105
q-39 44 -96 58zM664 -208q37 -40 37 -130q0 -145 -77 -314q-79 -175 -172 -212q-28 -11 -47 -11q-43 0 -43 54q0 105 146 372q141 258 156 241z" />
    <glyph glyph-name="afii10037" unicode="{" horiz-adv-x="1075" 
d="M671 2116q90 -16 157 -104t67 -185q0 -101 -76 -162q-38 11 -87 58q-43 41 -68 41q-49 0 -129 -112q-22 -30 -22 -233q0 -119 8 -320q9 -208 9 -221q1 -185 -153 -400q-3 -69 23 -234q27 -173 23 -345q-2 -89 -2 -136q0 -340 115 -480q44 -55 93 -55q65 0 154 110
q113 139 125 147q8 2 17 2q94 0 82 -69q-76 -443 -360 -443q-125 0 -272 97q-77 51 -104 226q-18 116 -18 364v102q0 219 -13 325q-19 157 -76 216q-20 20 -60 34q-45 15 -60 26q-29 21 -29 69q0 61 41 138q38 73 64 78q98 21 99 21q51 15 82 47q1 34 -8 217
q-10 209 -10 347q0 839 334 839q26 0 54 -5z" />
    <glyph glyph-name="afii10038" unicode="|" horiz-adv-x="332" 
d="M275 0h-227v2040h227v-2040z" />
    <glyph glyph-name="afii10039" unicode="}" horiz-adv-x="1127" 
d="M387 2112q-90 -17 -157 -104.5t-67 -185.5q0 -100 76 -161q38 10 87 57q43 42 68 42q49 0 129 -113q22 -30 22 -232q0 -119 -8 -320q-9 -208 -9 -222q-1 -184 153 -400q3 -69 -23 -233q-27 -173 -23 -346q2 -89 2 -135q0 -341 -115 -481q-44 -54 -93 -54q-65 0 -154 110
q-113 139 -125 147q-8 1 -17 1q-94 0 -82 -69q76 -442 360 -442q125 0 272 97q77 51 104 226q18 116 18 364v101q0 220 13 326q19 157 76 215q20 21 60 34q45 15 60 26q29 22 29 70q0 61 -41 138q-38 73 -64 78q-98 20 -99 21q-51 14 -82 47q-1 34 8 217q10 209 10 347
q0 839 -334 839q-26 0 -54 -5z" />
    <glyph glyph-name="afii10040" unicode="~" horiz-adv-x="1285" 
d="M1158 1086h-124q-75 -158 -200 -158q-30 0 -163.5 78t-194.5 77q-222 -13 -364 -387h125q86 144 236 138q20 0 142.5 -69t211.5 -69q208 0 331 390z" />
    <glyph glyph-name="afii10041" unicode="&#xa1;" horiz-adv-x="551" 
d="M133 210q-21 158 -21 368q0 95 5.5 282.5t5.5 280.5q11 86 31 147q31 90 36 112q62 -20 96 -20q40 -85 78 -389q38 -309 38 -570q0 -217 -30 -310q-67 -117 -112 -117q-35 0 -69 83q-49 120 -58 133zM242 1582q-133 63 -133 164q0 29 12 62q15 111 129 111q13 0 27 -1
q115 -83 115 -209q0 -127 -150 -127z" />
    <glyph glyph-name="afii10042" unicode="&#xa2;" horiz-adv-x="962" 
d="M262 -169h-105l72 177q-109 55 -153 131q-9 17 -9 45q0 96 91 275q86 168 142 212q123 96 234 129l142 300l109 -10l-118 -284q63 -36 84 -89q6 -16 6 -37q0 -57 -40 -130q-37 -69 -78 -99q-16 -12 -47 -13q-32 -1 -44 11q-2 6 -2 11q0 28 35 94t35 95q0 12 -5 23
l-229 -553q83 7 199 36q100 26 138 44q34 5 94 -19.5t60 -44.5q0 -5 -4 -8q-68 -62 -206 -104.5t-271 -42.5q-35 0 -67 3zM460 604q-101 -76 -167 -203q-62 -117 -69 -228q9 -18 55 -34z" />
    <glyph glyph-name="afii10043" unicode="&#xa3;" horiz-adv-x="1396" 
d="M453 298q-78 -168 -179 -168q-50 0 -110 37q-23 15 -23 45q0 27 23 82q31 72 147 72q33 0 109 -10q0 -8 17 -25.5t17 -26.5q0 -4 -1 -6zM407 468q-31 1 -57 1q-131 0 -186.5 -33t-82.5 -127q-9 -32 -9 -68q0 -94 54 -165q58 -76 141 -76q110 0 191 70q89 77 89 202
q0 13 -1 26q33 -26 164 -96q27 -12 161 -91q75 -44 140 -44q30 0 64 7q93 18 165 59q88 50 88 108q0 54 -34 54q-10 0 -97 -33.5t-164 -33.5q-157 0 -323 128q-41 32 -89 47q-79 24 -93 30q-16 83 -117 319l233 -1l-3 154l-273 1q-33 136 -33 224q0 81 25 141q39 104 79 209
q50 101 147 119q111 21 160 21q175 0 303 -141q8 -9 8 -20q0 -16 -28.5 -51t-28.5 -54q0 -10 6 -18q12 -21 32 -21q63 0 134 137q15 29 15 59q0 88 -120 162q-106 66 -219 77q-67 7 -122 7q-150 0 -239 -50q-72 -40 -130 -133q-52 -95 -105 -191q-65 -113 -65 -258
q0 -105 33 -219l-136 1l6 -154l177 -1q55 -103 140 -284z" />
    <glyph glyph-name="afii10044" unicode="&#xa4;" horiz-adv-x="1408" 
d="M676 1018q170 0 290 -113.5t120 -273.5q0 -161 -120 -274.5t-290 -113.5t-290.5 113.5t-120.5 274.5q0 160 120.5 273.5t290.5 113.5zM126 641q0 -196 125 -347l-156 -220l111 -74l136 205q148 -112 335 -112q183 0 329 108l136 -201l111 74l-154 210q52 50 91 165
q37 108 37 192q0 150 -73 275l167 232l-111 74l-135 -203q-163 170 -398 170q-46 0 -141 -24q-100 -26 -130 -48l-140 208l-111 -74l152 -204q-181 -163 -181 -406z" />
    <glyph glyph-name="afii10045" unicode="&#xa5;" horiz-adv-x="1320" 
d="M615 785q-51 54 -225 275q-152 194 -235 269q-40 37 -40 123q0 97 67 91q47 -64 279.5 -327.5t237.5 -261.5q3 1 180 321t190 349q19 17 40 17q40 0 69 -53t28 -117q0 -40 -162 -336q-124 -225 -236 -413h333v-136h-401q-14 -38 -37 -103l434 -2v-137l-480 4
q-128 -363 -180 -348q-78 22 -89 175q-2 31 64 167l-158 2v137l225 -4q31 63 50 107l-271 2v136h321q11 47 -4 63z" />
    <glyph glyph-name="afii10046" unicode="&#xa6;" horiz-adv-x="400" 
d="M288 957h-134v769h134v-769zM288 0h-134v749h134v-749z" />
    <glyph glyph-name="afii10047" unicode="&#xa7;" horiz-adv-x="986" 
d="M113 669q0 158 110.5 269t267.5 111q156 0 266.5 -111t110.5 -269q0 -178 -118 -282q-106 -94 -259 -94q-154 0 -260 94q-118 104 -118 282zM491 1049q-157 0 -267.5 111.5t-110.5 269.5q0 157 110.5 268.5t267.5 111.5q156 0 266.5 -111.5t110.5 -268.5q-43 -40 -64 -40
q-39 0 -71 30q0 106 -71 181t-171 75t-171 -75t-71 -181t71 -181t171 -75q18 0 59 -44q44 -48 50 -84q-23 2 -54 9q-22 4 -55 4zM726 659q0 106 -70.5 181t-170.5 75t-171 -75t-71 -181t71 -181t171 -75t170.5 75t70.5 181zM854 -84q0 -158 -110.5 -269t-266.5 -111
t-266.5 111t-110.5 269q2 13 9 23q17 23 51 25q66 4 75 -38q0 -106 70.5 -181t171.5 -75q100 0 170.5 75t70.5 181t-70.5 181t-170.5 75q-18 0 -59 44q-45 48 -50 84q225 -22 334 -91q152 -95 152 -303z" />
    <glyph glyph-name="afii10048" unicode="&#xa8;" horiz-adv-x="881" 
d="M545 1804q0 54 38.5 92.5t92.5 38.5t92 -38.5t38 -92.5t-38 -92t-92 -38t-92.5 38t-38.5 92zM65 1804q0 54 38 92.5t92 38.5t92 -38.5t38 -92.5t-38 -92t-92 -38t-92 38t-38 92z" />
    <glyph glyph-name="afii10049" unicode="&#xa9;" horiz-adv-x="1323" 
d="M658 923q159 0 279 102q131 112 131 286q-2 192 -129 326q-121 129 -281 129q-166 0 -285 -116q-131 -126 -127 -325q0 -175 132 -293q123 -109 280 -109zM63 1347q0 250 173.5 426t418.5 176t418.5 -176t173.5 -426q0 -249 -173.5 -425t-418.5 -176t-418.5 176
t-173.5 425zM553 1512q-32 -27 -81 -129q-52 -110 -52 -168q0 -18 5 -28q54 -99 195 -99q162 0 256 91q3 2 3 5q0 13 -34 28t-54 12q-93 -48 -203 -48q-64 0 -79 32q6 93 64 182q65 101 156 126q11 -10 11 -24q0 -17 -25 -57.5t-21 -58.5q7 -7 25 -6q18 0 27 7
q23 19 45 62.5t22 77.5q0 13 -4 23q-21 59 -78 59q-74 0 -178 -87z" />
    <glyph glyph-name="afii10065" unicode="&#xaa;" horiz-adv-x="747" 
d="M121 1780q-8 -32 -8 -61q0 -125 114 -125q82 0 169 72q13 -4 27.5 -23t27.5 -25q91 -48 121 -48q37 0 75 28q18 13 18 22q0 16 -37 16q-9 0 -26.5 -2.5t-26.5 -2.5q-44 0 -79 30q-51 28 -51 76q0 15 16 68q9 31 9 56q0 98 -105 98q-69 0 -137 -46q-75 -51 -107 -133z
M328 1867q23 -29 23 -68q0 -53 -40.5 -98.5t-95.5 -50.5q-22 36 -22 70q0 92 135 147zM113 1342v-74h533v74h-533z" />
    <glyph glyph-name="afii10066" unicode="&#xab;" horiz-adv-x="881" 
d="M800 580l-278 -273l278 -307l-101 307zM378 580l-278 -273l278 -307l-101 307z" />
    <glyph glyph-name="afii10067" unicode="&#xac;" horiz-adv-x="1350" 
d="M78 430v215h1190v-645h-171v430h-1019z" />
    <glyph glyph-name="afii10068" unicode="&#xae;" horiz-adv-x="1312" 
d="M651 960q159 0 279 102q131 112 131 286q-2 192 -129 326q-121 129 -281 129q-166 0 -285 -116q-131 -126 -127 -325q0 -175 132 -293q123 -109 280 -109zM56 1384q0 250 173.5 426t418.5 176t418.5 -176t173.5 -426q0 -249 -173.5 -425t-418.5 -176t-418.5 176
t-173.5 425zM608 1691q-37 -28 -103 -196l7 -10q-20 -32 -19 -60q1 -40 11 -57q11 -22 23 -22q10 0 12 19q1 6 -4.5 16t-5.5 14l7 1q26 181 121 233q16 8 30 8q49 0 49 -95q0 -74 -31 -141q-35 -75 -88 -85q18 48 44 146q5 32 -18 57q-18 20 -33 20q-3 0 -4 -2
q-10 -52 -37 -155q-33 -92 -70 -237q13 -74 30 -74q5 0 9 3q19 13 19 72q1 56 22 63q18 6 75.5 -33.5t71.5 -65.5q43 -32 69 -32q37 0 60 61q4 22 13 63q3 11 -20 39l-29 -21q-28 -68 -65 -69q-7 0 -14 11q-10 15 -12 17q-21 17 -43 34q-39 30 -35 35q30 36 88 113
q52 77 52 150q0 80 -62 160q-23 30 -80 30q-27 0 -40 -10z" />
    <glyph glyph-name="afii10069" unicode="&#xaf;" horiz-adv-x="911" 
d="M53 1742v215h781v-215h-781z" />
    <glyph glyph-name="afii10070" unicode="&#xb0;" horiz-adv-x="907" 
d="M447 1336q104 0 182 65q85 71 85 182q-1 123 -84 209q-79 82 -183 82q-108 0 -186 -74q-85 -81 -83 -208q0 -111 87 -186q80 -70 182 -70zM59 1607q0 159 113 271t273 112t273 -112t113 -271t-113 -271.5t-273 -112.5t-273 112.5t-113 271.5z" />
    <glyph glyph-name="afii10072" unicode="&#xb1;" horiz-adv-x="1042" 
d="M942 786v178h-335v417h-187v-417h-344v-178h344v-416h187v416h335zM97 176v-176h860v176h-860z" />
    <glyph glyph-name="afii10073" unicode="&#xb2;" horiz-adv-x="744" 
d="M256 1956q-131 -45 -131 -132q0 -55 52 -126q51 36 51 86q0 31 -19 67q62 1 106 -10q115 -109 115 -236q0 -70 -36 -147l-21 -14q-58 49 -114 49q-47 0 -93 -35q-80 -74 -80 -164q0 -34 12 -70l21 -24h16l79 19l32 19l16 5l84 48l27 -10q53 -104 140 -104q40 0 87 23
q76 53 76 129q0 23 -7 48l-26 14q-72 -3 -85 -71q3 -23 21 -29q-18 -12 -37 -10q-78 25 -111 82q89 151 89 280q0 163 -142 289q-67 18 -111 24v0h-11zM198 1391q89 -13 89 -33q0 -22 -110 -53q-3 14 -3 26q0 36 24 60z" />
    <glyph glyph-name="afii10074" unicode="&#xb3;" horiz-adv-x="664" 
d="M215 1962q-119 -22 -119 -60q0 -19 33 -43q35 13 152 12q109 -2 160 -12q-29 -37 -70 -54q-85 -86 -193 -125q-26 -32 -60 -49q2 -32 17 -58q43 1 64 29q103 43 172 43q74 0 107 -51q14 -38 14 -73q0 -71 -62 -126q-62 -15 -118 -15q-102 0 -188 48q-53 -25 -53 -64
q0 -11 5 -23q119 -52 217 -52q153 0 255 126q42 74 41 141q-2 91 -84 170q-27 7 -81 17q118 72 118 162q0 18 -5 36q-63 13 -160 16q-81 3 -162 5z" />
    <glyph glyph-name="afii10075" unicode="&#xb4;" horiz-adv-x="568" 
d="M378 1955q-66 -31 -181 -138q-134 -125 -134 -191q0 -46 68 -56q97 72 195 143q128 96 161 150q11 6 11 22q0 26 -22 59q-21 9 -98 11z" />
    <glyph glyph-name="afii10076" unicode="&#xb5;" horiz-adv-x="1540" 
d="M671 0q17 3 105 88q85 83 111 83q7 0 11 -4q221 -215 365 -215q61 0 126 28q10 5 44.5 62.5t34.5 79.5q0 4 -2 7q-27 38 -49 27q-122 -64 -214 -64q-121 0 -196 108q-4 7 -4 19q0 33 74.5 219.5t74.5 264.5q0 57 -33 78q-62 40 -83 65l-21 -11q7 -114 -77 -300
q-83 -182 -175 -266q-177 -160 -303 -160q-99 0 -99 81q0 46 49 232t49 288q0 103 -32.5 146.5t-104.5 58.5q-15 -19 -117 -799.5t-100 -862.5q0 -29 21 -29q94 0 222 805q43 -47 160 -47q74 0 163 18z" />
    <glyph glyph-name="afii10077" unicode="&#xb6;" horiz-adv-x="948" 
d="M670 0h121v1747h94v140h-309q-233 0 -361 -133q-53 -77 -74 -132q-17 -42 -39 -141q1 -102 18 -166.5t67 -151.5q111 -38 234 -7v-1156h121l-2 1747h130v-1747z" />
    <glyph glyph-name="afii10078" unicode="&#xb7;" horiz-adv-x="592" 
d="M506 234q0 -79 -56 -153q-62 -81 -141 -81q-86 0 -141 66.5t-54 167.5q1 94 48 158q53 72 147 72q82 0 143 -83q54 -73 54 -147z" />
    <glyph glyph-name="afii10079" unicode="&#xb8;" horiz-adv-x="536" 
d="M310 -527q-49 -171 -220 -201l-19 -64q32 -8 66 -8q106 0 202 72q91 70 117 160q12 42 12 86q0 101 -61 184t-161 115l-60 35l52 121l-44 27l-77 -175l111 -73q93 -85 93 -201q0 -38 -11 -78z" />
    <glyph glyph-name="afii10080" unicode="&#xb9;" horiz-adv-x="566" 
d="M262 1959q-19 -13 -56 -40q-20 -98 -56 -144q-38 -49 -52 -105q26 -16 55 -16q12 0 24 3q15 41 30 83q19 48 44 80q-1 -31 10 -53q-9 -20 -7 -156q1 -155 -1 -177q-3 -33 -10 -54q19 -9 38 -9q28 0 54 19q-21 70 -21 169q0 59 10 168q10 116 11 163q-30 -1 -52 -14
q-3 -1 -4 10q15 44 18 70zM444 1362q-200 -20 -310 -10q-34 -19 -59 -28q-5 -15 -5 -29q0 -12 4 -23q5 3 185 5.5t190 0.5q46 32 46 53q0 22 -51 31z" />
    <glyph glyph-name="afii10081" unicode="&#xba;" horiz-adv-x="712" 
d="M298 1938q-157 -134 -157 -302q0 -34 8 -81q6 -43 5 -53q34 -64 34 -65q20 -29 50 -29q16 0 37 8q124 48 199 191q56 35 121 84q21 30 21 56q0 31 -29 31q-11 0 -26 -6q2 20 2 38q0 90 -54 136q-31 27 -59 27q-31 0 -63 -34q-55 27 -89 -1zM379 1644q2 -6 2 -12
q0 -33 -47.5 -73.5t-84.5 -40.5q-30 0 -34 32q-4 24 -4 46q0 121 91 215q16 -2 22 -57q7 -67 55 -110zM431 1862q20 9 37 9q50 0 50 -49q0 -47 -57 -97q-33 -30 -51 -30q-16 0 -16 29q0 30 18 86q16 51 19 52zM82 1286v-74h533v74h-533z" />
    <glyph glyph-name="afii10082" unicode="&#xbb;" horiz-adv-x="890" 
d="M108 580l278 -273l-278 -307l101 307zM530 580l278 -273l-278 -307l101 307z" />
    <glyph glyph-name="afii10083" unicode="&#xbc;" horiz-adv-x="1907" 
d="M364 1678q-26 -17 -76 -53q-28 -130 -77 -191q-52 -65 -71 -139q35 -21 76 -21q16 0 32 3q21 56 41 111q26 64 60 105q-1 -41 13 -69q-9 -21 -9 -96q0 -29 2 -105.5t2 -117.5q0 -137 -19 -194q27 -12 53 -12q37 0 73 25q-29 93 -29 224q0 78 14 223q14 154 15 216
q-40 -2 -71 -19q-4 -1 -6 13q21 58 25 94zM613 887q-273 -27 -425 -14q-46 -25 -80 -37q-6 -20 -6 -38q0 -17 5 -31q7 4 253 7t261 1q62 42 62 70q0 29 -70 42zM386 121l1120 1418l109 -121l-1120 -1418zM1441 927q0 -94 -51 -230q-48 -131 -112 -217q-16 -50 -16 -61
q0 -22 27 -63q121 -50 233 -50q53 0 104 11q9 -13 13 -124q3 -108 -2 -130q27 -19 54 -19q38 0 75 38q6 33 6 78q0 72 -18 192q-14 91 -28 181q-107 -21 -100 -115q-30 -3 -57 -3q-111 0 -201 46q75 195 151 331q17 98 17 92q11 45 11 76q-14 26 -39 29q-25 -18 -67 -62z
" />
    <glyph glyph-name="afii10084" unicode="&#xbd;" horiz-adv-x="1995" 
d="M379 1678q-26 -17 -76 -53q-28 -130 -77 -191q-52 -65 -71 -139q35 -21 76 -21q16 0 32 3q21 56 41 111q26 64 60 105q-1 -41 13 -69q-9 -21 -9 -96q0 -29 2 -105.5t2 -117.5q0 -137 -19 -194q27 -12 53 -12q37 0 73 25q-29 93 -29 224q0 78 14 223q14 154 15 216
q-40 -2 -71 -19q-4 -1 -6 13q21 58 25 94zM628 887q-273 -27 -425 -14q-46 -25 -80 -37q-6 -20 -6 -38q0 -17 5 -31q7 4 253 7t261 1q62 42 62 70q0 29 -70 42zM401 121l1120 1418l109 -121l-1120 -1418zM1471 921q-139 -51 -139 -150q0 -63 55 -145q55 41 55 98
q0 36 -21 77q66 1 112 -11q122 -124 122 -269q0 -81 -38 -168l-23 -16q-61 56 -120 56q-50 0 -98 -40q-85 -85 -85 -187q0 -39 13 -81l22 -27h17l84 22l33 22l17 5l89 55l28 -11q57 -119 148 -119q43 0 93 26q80 61 80 147q0 26 -8 55l-28 16q-75 -4 -89 -81q3 -26 22 -33
q-19 -14 -39 -11q-82 28 -117 93q94 173 94 320q0 186 -150 330q-71 20 -118 27v0h-11zM1410 276q94 -14 94 -37q0 -26 -117 -61q-2 15 -2 29q0 42 25 69z" />
    <glyph glyph-name="afii10085" unicode="&#xbe;" horiz-adv-x="1705" 
d="M229 121l1120 1418l109 -121l-1120 -1418zM1284 927q0 -94 -51 -230q-48 -131 -112 -217q-16 -50 -16 -61q0 -22 27 -63q121 -50 233 -50q53 0 104 11q9 -13 13 -124q3 -108 -2 -130q27 -19 54 -19q38 0 75 38q6 33 6 78q0 72 -18 192q-14 91 -28 181q-107 -21 -100 -115
q-30 -3 -57 -3q-111 0 -201 46q75 195 151 331q17 98 17 92q11 45 11 76q-14 26 -39 29q-25 -18 -67 -62zM242 1596q-127 -27 -127 -72q0 -23 36 -52q37 16 161 14q115 -1 168 -14q-30 -43 -74 -64q-89 -103 -204 -148q-27 -39 -63 -60q2 -38 17 -69q46 2 69 35
q109 51 181 51q79 0 114 -61q15 -45 15 -86q0 -85 -66 -151q-65 -18 -125 -18q-108 0 -199 57q-55 -30 -55 -76q0 -13 4 -28q126 -61 230 -61q162 0 270 150q44 87 43 166q-1 110 -89 205q-29 8 -85 20q124 86 124 193q0 22 -5 44q-66 14 -169 19q-86 3 -171 6z" />
    <glyph glyph-name="afii10086" unicode="&#xbf;" horiz-adv-x="961" 
d="M679 -11q31 48 62 97q43 74 60 143q34 87 34 164q0 116 -78 209q-33 -21 -49 -48q6 -35 6 -67q0 -71 -30 -125q6 -78 -67 -119q-62 -36 -159 -36q-111 0 -164 40q0 30 -10.5 68t-10.5 58q0 66 84 193q61 30 164 123q109 99 163 130q23 18 52 97q26 72 31 113
q15 59 15 178q0 163 -25 243q-45 29 -49 29q-14 0 -39 -23q0 -50 -9.5 -151t-9.5 -149q-21 -27 -127 -217q-47 -29 -146 -78q-55 -84 -112 -151q-98 -93 -135 -227q-15 -64 -31 -127q-3 -426 326 -426q117 0 254 59zM720 1633q132 62 132 163q0 29 -11 62q-16 111 -130 111
q-13 0 -27 -1q-115 -82 -115 -209q0 -126 151 -126z" />
    <glyph glyph-name="afii10087" unicode="&#xc0;" horiz-adv-x="1418" 
d="M781 1931q47 -22 129 -95q96 -87 96 -133q0 -32 -48 -39q-70 50 -140 99q-92 67 -116 104q-21 13 8 57q15 5 71 7zM617 1517q-24 -53 -79 -136q-53 62 -110 61q-13 0 -25 -3q-26 -220 -161 -621q-133 -394 -154 -599q-2 -23 -2 -46q0 -171 118 -257q26 -19 47 -19
q71 0 79 157q3 68 41 215q40 157 71 205q85 5 290 77q198 70 270 70q13 0 24 -2q2 -17 2 -34q0 -59 -27.5 -160.5t-27.5 -156.5q0 -90 51 -184q21 -40 67 -66q42 -24 78 -24q56 0 56 55q0 48 -51 109q23 195 95 344q28 59 28 162q0 47 -7.5 142.5t-7.5 137.5q0 20 1 37
q1 13 12 77q7 41 -1 65q-132 442 -386 495q-48 9 -89 9q-137 0 -202 -110zM910 1439q21 6 39 6q144 0 144 -332q0 -76 -7 -133q-2 -15 -2 -32q0 -24 5 -69t5 -65q0 -23 -4 -41q-67 50 -157 50q-70 0 -216 -43q-142 -42 -207 -40q89 303 243 521q33 54 67 108q39 56 90 70z
" />
    <glyph glyph-name="afii10088" unicode="&#xc1;" horiz-adv-x="1388" 
d="M953 1913q-43 -21 -118 -91q-89 -82 -89 -125q0 -30 45 -37l128 94q84 63 106 98q19 12 -8 54q-13 5 -64 7zM597 1517q-24 -53 -79 -136q-53 62 -110 61q-13 0 -25 -3q-26 -220 -161 -621q-133 -394 -154 -599q-2 -23 -2 -46q0 -171 118 -257q26 -19 47 -19q71 0 79 157
q3 68 41 215q40 157 71 205q85 5 290 77q198 70 270 70q13 0 24 -2q2 -17 2 -34q0 -59 -27.5 -160.5t-27.5 -156.5q0 -90 51 -184q21 -40 67 -66q42 -24 78 -24q56 0 56 55q0 48 -51 109q23 195 95 344q28 59 28 162q0 47 -7.5 142.5t-7.5 137.5q0 20 1 37q1 13 12 77
q7 41 -1 65q-132 442 -386 495q-48 9 -89 9q-137 0 -202 -110zM890 1439q21 6 39 6q144 0 144 -332q0 -76 -7 -133q-2 -15 -2 -32q0 -24 5 -69t5 -65q0 -23 -4 -41q-67 50 -157 50q-70 0 -216 -43q-142 -42 -207 -40q89 303 243 521q33 54 67 108q39 56 90 70z" />
    <glyph glyph-name="afii10089" unicode="&#xc2;" horiz-adv-x="1408" 
d="M756 1901h112l109 -213h-56l-109 107l-102 -107h-56zM617 1517q-24 -53 -79 -136q-53 62 -110 61q-13 0 -25 -3q-26 -220 -161 -621q-133 -394 -154 -599q-2 -23 -2 -46q0 -171 118 -257q26 -19 47 -19q71 0 79 157q3 68 41 215q40 157 71 205q85 5 290 77q198 70 270 70
q13 0 24 -2q2 -17 2 -34q0 -59 -27.5 -160.5t-27.5 -156.5q0 -90 51 -184q21 -40 67 -66q42 -24 78 -24q56 0 56 55q0 48 -51 109q23 195 95 344q28 59 28 162q0 47 -7.5 142.5t-7.5 137.5q0 20 1 37q1 13 12 77q7 41 -1 65q-132 442 -386 495q-48 9 -89 9q-137 0 -202 -110
zM910 1439q21 6 39 6q144 0 144 -332q0 -76 -7 -133q-2 -15 -2 -32q0 -24 5 -69t5 -65q0 -23 -4 -41q-67 50 -157 50q-70 0 -216 -43q-142 -42 -207 -40q89 303 243 521q33 54 67 108q39 56 90 70z" />
    <glyph glyph-name="afii10090" unicode="&#xc3;" horiz-adv-x="1473" 
d="M1252 1865h-82q-50 -83 -133 -83q-20 0 -108.5 41.5t-129.5 40.5q-148 -7 -242 -206h83q57 76 157 74q13 -1 94.5 -37.5t140.5 -36.5q138 0 220 207zM633 1517q-24 -53 -79 -136q-53 62 -110 61q-13 0 -25 -3q-26 -220 -161 -621q-133 -394 -154 -599q-2 -23 -2 -46
q0 -171 118 -257q26 -19 47 -19q71 0 79 157q3 68 41 215q40 157 71 205q85 5 290 77q198 70 270 70q13 0 24 -2q2 -17 2 -34q0 -59 -27.5 -160.5t-27.5 -156.5q0 -90 51 -184q21 -40 67 -66q42 -24 78 -24q56 0 56 55q0 48 -51 109q23 195 95 344q28 59 28 162
q0 47 -7.5 142.5t-7.5 137.5q0 20 1 37q1 13 12 77q7 41 -1 65q-132 442 -386 495q-48 9 -89 9q-137 0 -202 -110zM926 1439q21 6 39 6q144 0 144 -332q0 -76 -7 -133q-2 -15 -2 -32q0 -24 5 -69t5 -65q0 -23 -4 -41q-67 50 -157 50q-70 0 -216 -43q-142 -42 -207 -40
q89 303 243 521q33 54 67 108q39 56 90 70z" />
    <glyph glyph-name="afii10091" unicode="&#xc4;" horiz-adv-x="1340" 
d="M602 1517q-24 -53 -79 -136q-53 62 -110 61q-13 0 -25 -3q-26 -220 -161 -621q-133 -394 -154 -599q-2 -23 -2 -46q0 -171 118 -257q26 -19 47 -19q71 0 79 157q3 68 41 215q40 157 71 205q85 5 290 77q198 70 270 70q13 0 24 -2q2 -17 2 -34q0 -59 -27.5 -160.5
t-27.5 -156.5q0 -90 51 -184q21 -40 67 -66q42 -24 78 -24q56 0 56 55q0 48 -51 109q23 195 95 344q28 59 28 162q0 47 -7.5 142.5t-7.5 137.5q0 20 1 37q1 13 12 77q7 41 -1 65q-132 442 -386 495q-48 9 -89 9q-137 0 -202 -110zM895 1439q21 6 39 6q144 0 144 -332
q0 -76 -7 -133q-2 -15 -2 -32q0 -24 5 -69t5 -65q0 -23 -4 -41q-67 50 -157 50q-70 0 -216 -43q-142 -42 -207 -40q89 303 243 521q33 54 67 108q39 56 90 70zM924 1779q0 39 25.5 67t61.5 28t61 -28t25 -67q0 -40 -25 -68t-61 -28t-61.5 28t-25.5 68zM605 1779
q0 39 25.5 67t61.5 28q35 0 60.5 -28t25.5 -67q0 -40 -25.5 -68t-60.5 -28q-36 0 -61.5 28t-25.5 68z" />
    <glyph glyph-name="afii10092" unicode="&#xc5;" horiz-adv-x="1323" 
d="M613 1517q-24 -53 -79 -136q-53 62 -110 61q-13 0 -25 -3q-26 -220 -161 -621q-133 -394 -154 -599q-2 -23 -2 -46q0 -171 118 -257q26 -19 47 -19q71 0 79 157q3 68 41 215q40 157 71 205q85 5 290 77q198 70 270 70q13 0 24 -2q2 -17 2 -34q0 -59 -27.5 -160.5
t-27.5 -156.5q0 -90 51 -184q21 -40 67 -66q42 -24 78 -24q56 0 56 55q0 48 -51 109q23 195 95 344q28 59 28 162q0 47 -7.5 142.5t-7.5 137.5q0 20 1 37q1 13 12 77q7 41 -1 65q-132 442 -386 495q-48 9 -89 9q-137 0 -202 -110zM906 1439q21 6 39 6q144 0 144 -332
q0 -76 -7 -133q-2 -15 -2 -32q0 -24 5 -69t5 -65q0 -23 -4 -41q-67 50 -157 50q-70 0 -216 -43q-142 -42 -207 -40q89 303 243 521q33 54 67 108q39 56 90 70zM887 1699q35 0 62.5 23t27.5 60q-1 41 -28 69t-62 28q-37 0 -63 -25q-29 -27 -28 -69q0 -37 28 -61.5t63 -24.5z
M756 1790q0 53 38 90.5t92 37.5t92 -37.5t38 -90.5t-38 -90.5t-92 -37.5t-92 37.5t-38 90.5z" />
    <glyph glyph-name="afii10093" unicode="&#xc6;" horiz-adv-x="2253" 
d="M925 1618q-44 4 -78 4q-151 0 -213 -105q-24 -53 -79 -136q-53 62 -110 61q-13 0 -25 -3q-26 -220 -161 -621q-133 -394 -154 -599q-2 -23 -2 -46q0 -171 118 -257q26 -19 47 -19q71 0 79 157q3 68 41 215q40 157 71 205q85 5 290 77q198 70 270 70q13 0 24 -2
q2 -17 2 -34q0 -59 -27.5 -160.5t-27.5 -156.5q0 -90 51 -184q21 -40 67 -66q42 -24 78 -24q56 0 56 55q0 48 -51 109q51 -49 149 -81q94 -31 179 -31q61 0 96 17q57 27 196 139q156 125 156 164q-1 93 -13 105q-41 13 -82 25q-12 4 -91 -39q-64 -35 -94 -56
q-179 -123 -301 -123q-76 0 -115 54q21 94 66 211q51 135 94 187q53 -60 102 -95q65 0 534 208q15 34 15 68q0 66 -52 112t-133 46q-33 0 -54 -30q-15 -24 -29 -48q-77 -21 -287 -113q-2 11 -2 24q0 41 36.5 134.5t36.5 144.5q0 65 -44 122q93 44 312 75.5t304 71.5
q29 14 29 53q0 66 -57 120q-38 37 -145 37q-172 0 -406.5 -78t-264.5 -143q-72 94 -186 136q-76 28 -215 43zM927 1439q21 6 39 6q144 0 144 -332q0 -76 -7 -133q-2 -15 -2 -32q0 -24 5 -69t5 -65q0 -23 -4 -41q-67 50 -157 50q-70 0 -216 -43q-142 -42 -207 -40
q89 303 243 521q33 54 67 108q39 56 90 70z" />
    <glyph glyph-name="afii10094" unicode="&#xc7;" horiz-adv-x="1459" 
d="M1386 301q13 14 13 28q0 26 -36 44.5t-85 18.5q-19 0 -38 -4q-93 -54 -290 -114q-242 -74 -414 -74q-219 0 -270 125q19 365 219 716q224 393 539 492q39 -40 39 -95q0 -66 -81 -214.5t-81 -213.5q0 -12 2 -24q39 -45 78 -45q20 0 35 14q66 61 127 199q64 148 64 262
q0 43 -10 75q-62 195 -221 195q-212 0 -505 -287q-91 -89 -229 -427q-147 -362 -147 -554q0 -58 15 -92q150 -324 545 -326l-77 -175l111 -73q93 -85 93 -201q0 -38 -11 -78q-49 -170 -220 -201l-19 -64q32 -8 66 -8q106 0 202 72q91 70 117 160q12 42 12 86q0 101 -61 184
t-161 115l-60 35l78 150q187 21 377 106.5t284 192.5z" />
    <glyph glyph-name="afii10095" unicode="&#xc8;" horiz-adv-x="1288" 
d="M439 1448q-68 -372 -301 -859q-33 -67 -33 -197q0 -209 91 -297q50 -49 149 -81q93 -31 179 -31q61 0 96 17q56 27 196 139q156 125 156 164q-1 93 -14 105q-40 13 -81 25q-13 4 -91 -39q-64 -35 -94 -56q-179 -123 -301 -123q-76 0 -116 54q22 94 66 211q52 135 94 188
q53 -61 102 -96q66 0 534 208q16 34 16 68q0 66 -52 112t-134 46q-32 0 -53 -30q-15 -24 -29 -48q-77 -21 -287 -113q-2 11 -2 24q0 41 36 134.5t36 144.5q0 65 -43 122q92 44 311 75.5t305 71.5q29 14 29 53q0 66 -57 120q-40 38 -132 38q-158 0 -576 -150zM570 1882
q48 -22 129 -95q97 -87 97 -133q0 -32 -49 -39q-70 50 -140 99q-91 67 -115 104q-21 13 8 57q15 5 70 7z" />
    <glyph glyph-name="afii10096" unicode="&#xc9;" horiz-adv-x="1295" 
d="M475 1474q-68 -372 -301 -859q-33 -67 -33 -197q0 -209 91 -297q50 -49 149 -81q93 -31 179 -31q61 0 96 17q56 27 196 139q156 125 156 164q-1 93 -14 105q-40 13 -81 25q-13 4 -91 -39q-64 -35 -94 -56q-179 -123 -301 -123q-76 0 -116 54q22 94 66 211q52 135 94 188
q53 -61 102 -96q66 0 534 208q16 34 16 68q0 66 -52 112t-134 46q-32 0 -53 -30q-15 -24 -29 -48q-77 -21 -287 -113q-2 11 -2 24q0 41 36 134.5t36 144.5q0 65 -43 122q92 44 311 75.5t305 71.5q29 14 29 53q0 66 -57 120q-40 38 -132 38q-158 0 -576 -150zM953 1913
q-43 -21 -118 -91q-89 -82 -89 -125q0 -30 45 -37l128 94q84 63 106 98q19 12 -8 54q-13 5 -64 7z" />
    <glyph glyph-name="afii10097" unicode="&#xca;" horiz-adv-x="1281" 
d="M430 1448q-68 -372 -301 -859q-33 -67 -33 -197q0 -209 91 -297q50 -49 149 -81q93 -31 179 -31q61 0 96 17q56 27 196 139q156 125 156 164q-1 93 -14 105q-40 13 -81 25q-13 4 -91 -39q-64 -35 -94 -56q-179 -123 -301 -123q-76 0 -116 54q22 94 66 211q52 135 94 188
q53 -61 102 -96q66 0 534 208q16 34 16 68q0 66 -52 112t-134 46q-32 0 -53 -30q-15 -24 -29 -48q-77 -21 -287 -113q-2 11 -2 24q0 41 36 134.5t36 144.5q0 65 -43 122q92 44 311 75.5t305 71.5q29 14 29 53q0 66 -57 120q-40 38 -132 38q-158 0 -576 -150zM756 1901h112
l109 -213h-56l-109 107l-102 -107h-56z" />
    <glyph glyph-name="afii10071" unicode="&#xcb;" horiz-adv-x="1323" 
d="M463 1448q-68 -372 -301 -859q-33 -67 -33 -197q0 -209 91 -297q50 -49 149 -81q93 -31 179 -31q61 0 96 17q56 27 196 139q156 125 156 164q-1 93 -14 105q-40 13 -81 25q-13 4 -91 -39q-64 -35 -94 -56q-179 -123 -301 -123q-76 0 -116 54q22 94 66 211q52 135 94 188
q53 -61 102 -96q66 0 534 208q16 34 16 68q0 66 -52 112t-134 46q-32 0 -53 -30q-15 -24 -29 -48q-77 -21 -287 -113q-2 11 -2 24q0 41 36 134.5t36 144.5q0 65 -43 122q92 44 311 75.5t305 71.5q29 14 29 53q0 66 -57 120q-40 38 -132 38q-158 0 -576 -150zM924 1779
q0 39 25.5 67t61.5 28t61 -28t25 -67q0 -40 -25 -68t-61 -28t-61.5 28t-25.5 68zM605 1779q0 39 25.5 67t61.5 28q35 0 60.5 -28t25.5 -67q0 -40 -25.5 -68t-60.5 -28q-36 0 -61.5 28t-25.5 68z" />
    <glyph glyph-name="afii10099" unicode="&#xcc;" horiz-adv-x="1066" 
d="M738 1572q-279 13 -301 13q-313 0 -318 -89q-2 -24 28 -85.5t52 -77.5q10 -8 35 -8q35 0 183.5 31t222.5 31q73 0 111 -24q26 -29 82 -65q36 -8 72 -3q48 6 51 38q1 14 1 27q0 92 -60.5 149.5t-158.5 62.5zM385 440q4 -70 72 -162q23 -8 40 -8q46 0 63 63
q119 426 153 698q1 13 1 26q0 120 -127 245q-55 5 -134 -380q-75 -363 -68 -482zM112 210q8 -61 15 -123q21 -82 82 -85q82 -5 218 6q158 13 218 13q108 0 199.5 -21t99.5 -2q10 23 10 47q0 105 -141 175q-47 -12 -119 -12q-61 0 -203 13.5t-209 13.5q-107 0 -170 -25z
M472 1923q48 -22 129 -95q97 -87 97 -133q0 -32 -49 -39q-70 50 -140 99q-91 67 -115 104q-21 13 8 57q15 5 70 7z" />
    <glyph glyph-name="afii10100" unicode="&#xcd;" horiz-adv-x="1076" 
d="M740 1573q-279 13 -300 13q-314 0 -319 -88q-1 -24 29 -85.5t51 -77.5q10 -8 35 -8q35 0 183.5 31t223.5 31q72 0 110 -24q27 -29 83 -65q36 -9 71 -4q48 7 51 39q2 14 2 27q0 92 -61 149.5t-159 61.5zM388 442q4 -70 72 -162q23 -8 40 -8q45 0 63 63q119 426 152 698
q2 13 2 25q0 120 -127 246q-55 4 -135 -380q-75 -363 -67 -482zM114 212q8 -62 16 -123q21 -82 81 -85q82 -5 219 6q157 12 218 12q107 0 198.5 -20.5t99.5 -1.5q10 23 10 47q0 104 -140 175q-47 -13 -119 -13q-62 0 -203.5 14t-209.5 14q-106 0 -170 -25zM711 1913
q-43 -21 -118 -91q-89 -82 -89 -125q0 -30 45 -37l128 94q84 63 106 98q19 12 -8 54q-13 5 -64 7z" />
    <glyph glyph-name="afii10101" unicode="&#xce;" horiz-adv-x="1037" 
d="M718 1572q-279 13 -301 13q-313 0 -318 -89q-2 -24 28 -85.5t52 -77.5q10 -8 35 -8q35 0 183.5 31t222.5 31q73 0 111 -24q26 -29 82 -65q36 -8 72 -3q48 6 51 38q1 14 1 27q0 92 -60.5 149.5t-158.5 62.5zM365 440q4 -70 72 -162q23 -8 40 -8q46 0 63 63
q119 426 153 698q1 13 1 26q0 120 -127 245q-55 5 -134 -380q-75 -363 -68 -482zM92 210q8 -61 15 -123q21 -82 82 -85q82 -5 218 6q158 13 218 13q108 0 199.5 -21t99.5 -2q10 23 10 47q0 105 -141 175q-47 -12 -119 -12q-61 0 -203 13.5t-209 13.5q-107 0 -170 -25z
M469 1913h111l109 -213h-56l-108 106l-103 -106h-56z" />
    <glyph glyph-name="afii10102" unicode="&#xcf;" horiz-adv-x="1123" 
d="M788 1572q-279 13 -301 13q-313 0 -318 -89q-2 -24 28 -85.5t52 -77.5q10 -8 35 -8q35 0 183.5 31t222.5 31q73 0 111 -24q26 -29 82 -65q36 -8 72 -3q48 6 51 38q1 14 1 27q0 92 -60.5 149.5t-158.5 62.5zM435 440q4 -70 72 -162q23 -8 40 -8q46 0 63 63
q119 426 153 698q1 13 1 26q0 120 -127 245q-55 5 -134 -380q-75 -363 -68 -482zM162 210q8 -61 15 -123q21 -82 82 -85q82 -5 218 6q158 13 218 13q108 0 199.5 -21t99.5 -2q10 23 10 47q0 105 -141 175q-47 -12 -119 -12q-61 0 -203 13.5t-209 13.5q-107 0 -170 -25z
M732 1782q0 40 25 68t61 28t61.5 -28t25.5 -68q0 -39 -25.5 -67t-61.5 -28t-61 28t-25 67zM413 1782q0 40 25 68t61 28t61 -28t25 -68q0 -39 -25 -67t-61 -28t-61 28t-25 67z" />
    <glyph glyph-name="afii10103" unicode="&#xd0;" horiz-adv-x="1687" 
d="M891 1201q-28 105 -39 123q-29 45 -113 58q-83 -176 -143 -476l-369 -1v-176h336q-10 -88 -10 -167q0 -205 63 -303q-27 -15 -139 -38q-121 -26 -184 -26q-34 0 -42 8q-23 21 -44 133q-18 101 -42 101q-5 0 -10 -3q-72 -35 -72 -137q0 -153 121 -231q105 -69 243 -69
q218 0 482 164q238 146 431 368q189 218 234 391q6 23 6 57q0 152 -68 239q-103 133 -309 222q-79 34 -384 129q-236 73 -349 148q-38 66 -70 66q-30 0 -30 -51q0 -56 41 -125q24 -38 107 -105q62 -49 77 -130l50 -60q-6 49 -6 87q0 35 5 61q75 -49 336 -127
q251 -75 359 -155q63 -25 63 -98q0 -86 -84 -225q-64 -106 -117 -159q-257 -258 -402 -300q12 90 8 335h259v176l-258 1q9 187 63 295z" />
    <glyph glyph-name="afii10104" unicode="&#xd1;" horiz-adv-x="1464" 
d="M1093.5 1603.5q-3.5 -16.5 -12.5 -16.5q37 -99 37 -287q0 -107 -16 -341.5t-16 -340.5q0 -124 15 -206q10 -54 64 -163q47 -94 44 -132q-1 -11 -6 -11q-9 0 -47 69q-43 78 -60 95q-185 192 -450 593.5t-369 508.5q-61 62 -163 77q2 -74 -18 -480q-21 -430 -21 -591
q0 -136 12 -168q45 -128 145 -185q11 313 22 625q18 534 37 547q3 1 5 1q12 0 27 -46q19 -59 23 -67q156 -268 384 -574q249 -335 423 -494q10 -3 17 -3q18 0 22 32q5 37 18 48q4 3 9 3q17 0 59 -52q39 -50 51 -44q34 14 20 61q-31 87 -61 174t-30 157q0 23 2 48
q-12 105 -12 227q0 92 10 274.5t10 275.5q0 87 -6 164.5t-57.5 162t-88.5 84.5q-7 0 -13 -4.5t-9.5 -21zM994 1859h-83q-49 -84 -132 -84q-20 0 -108.5 41.5t-129.5 40.5q-148 -6 -242 -206h83q57 77 157 74q13 -1 94.5 -37.5t140.5 -36.5q138 0 220 208z" />
    <glyph glyph-name="afii10105" unicode="&#xd2;" horiz-adv-x="1406" 
d="M732 1584l-308 -274q-148 -155 -224 -387q-65 -200 -65 -375q0 -346 247 -548q32 -3 64 -3q335 0 600 266q278 278 265 652q-9 292 -170 485q-166 198 -409 184zM973 1337q209 -62 209 -328q0 -148 -70 -306q-117 -190 -273 -330q-202 -182 -378 -182q-74 0 -140 33
q-22 76 -22 192q0 240 77 468q84 250 207 290q-3 -26 -3 -50q0 -166 77 -166q15 0 18 38q4 46 11.5 56t16.5 10q11 0 39 -25t43 -25q16 -1 19 63q1 15 5 20q24 29 72 152q37 93 77 93q7 0 15 -3zM723 1155q18 -5 18 -39q0 -50 -27 -42q-15 5 -15 34q0 55 24 47zM781 1931
q47 -22 129 -95q96 -87 96 -133q0 -32 -48 -39q-70 50 -140 99q-92 67 -116 104q-21 13 8 57q15 5 71 7z" />
    <glyph glyph-name="afii10106" unicode="&#xd3;" horiz-adv-x="1372" 
d="M705 1584l-308 -274q-148 -155 -224 -387q-65 -200 -65 -375q0 -346 247 -548q32 -3 64 -3q335 0 600 266q278 278 265 652q-9 292 -170 485q-166 198 -409 184zM946 1337q209 -62 209 -328q0 -148 -70 -306q-117 -190 -273 -330q-202 -182 -378 -182q-74 0 -140 33
q-22 76 -22 192q0 240 77 468q84 250 207 290q-3 -26 -3 -50q0 -166 77 -166q15 0 18 38q4 46 11.5 56t16.5 10q11 0 39 -25t43 -25q16 -1 19 63q1 15 5 20q24 29 72 152q37 93 77 93q7 0 15 -3zM696 1155q18 -5 18 -39q0 -50 -27 -42q-15 5 -15 34q0 55 24 47zM953 1913
q-43 -21 -118 -91q-89 -82 -89 -125q0 -30 45 -37l128 94q84 63 106 98q19 12 -8 54q-13 5 -64 7z" />
    <glyph glyph-name="afii10107" unicode="&#xd4;" horiz-adv-x="1332" 
d="M675 1584l-308 -274q-148 -155 -224 -387q-65 -200 -65 -375q0 -346 247 -548q32 -3 64 -3q335 0 600 266q278 278 265 652q-9 292 -170 485q-166 198 -409 184zM916 1337q209 -62 209 -328q0 -148 -70 -306q-117 -190 -273 -330q-202 -182 -378 -182q-74 0 -140 33
q-22 76 -22 192q0 240 77 468q84 250 207 290q-3 -26 -3 -50q0 -166 77 -166q15 0 18 38q4 46 11.5 56t16.5 10q11 0 39 -25t43 -25q16 -1 19 63q1 15 5 20q24 29 72 152q37 93 77 93q7 0 15 -3zM666 1155q18 -5 18 -39q0 -50 -27 -42q-15 5 -15 34q0 55 24 47zM756 1901
h112l109 -213h-56l-109 107l-102 -107h-56z" />
    <glyph glyph-name="afii10108" unicode="&#xd5;" horiz-adv-x="1422" 
d="M684 1584l-308 -274q-148 -155 -224 -387q-65 -200 -65 -375q0 -346 247 -548q32 -3 64 -3q335 0 600 266q278 278 265 652q-9 292 -170 485q-166 198 -409 184zM925 1337q209 -62 209 -328q0 -148 -70 -306q-117 -190 -273 -330q-202 -182 -378 -182q-74 0 -140 33
q-22 76 -22 192q0 240 77 468q84 250 207 290q-3 -26 -3 -50q0 -166 77 -166q15 0 18 38q4 46 11.5 56t16.5 10q11 0 39 -25t43 -25q16 -1 19 63q1 15 5 20q24 29 72 152q37 93 77 93q7 0 15 -3zM675 1155q18 -5 18 -39q0 -50 -27 -42q-15 5 -15 34q0 55 24 47zM1122 1865
h-82q-50 -83 -133 -83q-20 0 -108.5 41.5t-129.5 40.5q-148 -7 -242 -206h83q57 76 157 74q13 -1 94.5 -37.5t140.5 -36.5q138 0 220 207z" />
    <glyph glyph-name="afii10109" unicode="&#xd6;" horiz-adv-x="1390" 
d="M658 1584l-308 -274q-148 -155 -224 -387q-65 -200 -65 -375q0 -346 247 -548q32 -3 64 -3q335 0 600 266q278 278 265 652q-9 292 -170 485q-166 198 -409 184zM899 1337q209 -62 209 -328q0 -148 -70 -306q-117 -190 -273 -330q-202 -182 -378 -182q-74 0 -140 33
q-22 76 -22 192q0 240 77 468q84 250 207 290q-3 -26 -3 -50q0 -166 77 -166q15 0 18 38q4 46 11.5 56t16.5 10q11 0 39 -25t43 -25q16 -1 19 63q1 15 5 20q24 29 72 152q37 93 77 93q7 0 15 -3zM649 1155q18 -5 18 -39q0 -50 -27 -42q-15 5 -15 34q0 55 24 47zM814 1779
q0 39 25.5 67t61.5 28t61 -28t25 -67q0 -40 -25 -68t-61 -28t-61.5 28t-25.5 68zM495 1779q0 39 25.5 67t61.5 28q35 0 60.5 -28t25.5 -67q0 -40 -25.5 -68t-60.5 -28q-36 0 -61.5 28t-25.5 68z" />
    <glyph glyph-name="afii10110" unicode="&#xd7;" horiz-adv-x="1274" 
d="M1156 869l-150 139l-382 -360l-403 360l-149 -147l402 -360l-359 -362l150 -139l360 362l381 -335l150 148l-382 334z" />
    <glyph glyph-name="afii10193" unicode="&#xd8;" horiz-adv-x="1361" 
d="M697 1584l-308 -274q-148 -155 -224 -387q-59 -181 -59 -359q0 -192 68 -345l-75 -95l109 -121l60 76q29 -31 79 -79q32 -3 64 -3q335 0 600 266q278 278 265 652q-6 193 -69 353l121 153l-109 121l-117 -148q-183 203 -405 190zM1077 703q-110 -178 -285 -322
q-211 -173 -390 -173q-16 0 -31 1l767 971q19 -55 19 -129q0 -168 -80 -348zM548 1174q-3 -26 -3 -50q0 -166 77 -166q15 0 18 38q4 46 11.5 56t16.5 10q11 0 39 -25t43 -25q16 -1 19 63q1 15 5 20q24 29 72 152q37 93 77 93q7 0 15 -3q34 -20 83 -46l-744 -942
q-5 250 66 501q81 284 205 324zM688 1155q18 -5 18 -39q0 -50 -27 -42q-15 5 -15 34q0 55 24 47z" />
    <glyph glyph-name="afii10050" unicode="&#xd9;" horiz-adv-x="1498" 
d="M70 437q1 -77 44 -199q39 -112 86 -189.5t174 -77.5q81 0 178 29q18 5 114 143q93 134 121 134q8 0 12 -6q123 -179 207 -257q100 -93 191 -93q66 0 137 47q11 8 48 99q38 96 38 132q0 7 -2 10q-21 46 -47 46q-4 0 -6 -2q-133 -104 -234 -104q-131 0 -213 177
q-5 10 -5 29q0 55 81.5 358t81.5 430q0 92 -36 127q-68 65 -91 105l-22 -18q7 -185 -85 -487q-90 -296 -190 -433q-192 -260 -330 -260q-45 0 -80 31q-27 24 -27 101q0 75 53 377.5t53 467.5q0 110 -20 193q-25 107 -129 140q-17 -30 -60.5 -475t-41.5 -575zM539 1870
q48 -22 129 -95q97 -87 97 -133q0 -32 -49 -39q-70 50 -140 99q-91 67 -115 104q-21 13 8 57q15 5 70 7z" />
    <glyph glyph-name="afii10098" unicode="&#xda;" horiz-adv-x="1508" 
d="M74 457q1 -77 44 -199q39 -112 86 -189.5t174 -77.5q81 0 178 29q18 5 114 143q93 134 121 134q8 0 12 -6q123 -179 207 -257q100 -93 191 -93q66 0 137 47q11 8 48 99q38 96 38 132q0 7 -2 10q-21 46 -47 46q-4 0 -6 -2q-133 -104 -234 -104q-131 0 -213 177
q-5 10 -5 29q0 55 81.5 358t81.5 429q0 93 -36 128q-68 65 -91 105l-22 -18q7 -185 -85 -487q-90 -296 -190 -433q-192 -260 -330 -260q-45 0 -80 31q-27 24 -27 101q0 75 53 377.5t53 467.5q0 110 -20 193q-25 107 -129 140q-17 -30 -60.5 -475t-41.5 -575zM784 1844
q-43 -21 -118 -91q-89 -82 -89 -125q0 -30 45 -37l128 94q84 63 106 98q19 12 -8 54q-13 5 -64 7z" />
    <glyph glyph-name="glyph540" unicode="&#xdb;" horiz-adv-x="1500" 
d="M76 468q1 -77 44 -199q39 -112 86 -189.5t174 -77.5q81 0 178 29q18 5 114 143q93 134 121 134q8 0 12 -6q123 -179 207 -257q100 -93 191 -93q66 0 137 47q11 8 48 99q38 96 38 132q0 7 -2 10q-21 46 -47 46q-4 0 -6 -2q-133 -104 -234 -104q-131 0 -213 177
q-5 10 -5 29q0 55 81.5 358t81.5 430q0 92 -36 127q-68 65 -91 105l-22 -18q7 -185 -85 -487q-90 -296 -190 -433q-192 -260 -330 -260q-45 0 -80 31q-27 24 -27 101q0 75 53 377.5t53 467.5q0 110 -20 193q-25 107 -129 140q-17 -30 -60.5 -475t-41.5 -575zM600 1872h111
l109 -213h-56l-108 106l-103 -106h-56z" />
    <glyph glyph-name="Wgrave" unicode="&#xdc;" horiz-adv-x="1520" 
d="M48 467q1 -77 44 -199q39 -112 86 -189.5t174 -77.5q81 0 178 29q18 5 114 143q93 134 121 134q8 0 12 -6q123 -179 207 -257q100 -93 191 -93q66 0 137 47q11 8 48 99q38 96 38 132q0 7 -2 10q-21 46 -47 46q-4 0 -6 -2q-133 -104 -234 -104q-131 0 -213 177
q-5 10 -5 29q0 55 81.5 358t81.5 429q0 93 -36 128q-68 65 -91 105l-22 -18q7 -185 -85 -487q-90 -296 -190 -433q-192 -260 -330 -260q-45 0 -80 31q-27 24 -27 101q0 75 53 377.5t53 467.5q0 110 -20 193q-25 107 -129 140q-17 -30 -60.5 -475t-41.5 -575zM709 1731
q0 40 25 68t61 28t61.5 -28t25.5 -68q0 -39 -25.5 -67t-61.5 -28t-61 28t-25 67zM390 1731q0 40 25 68t61 28t61 -28t25 -68q0 -39 -25 -67t-61 -28t-61 28t-25 67z" />
    <glyph glyph-name="wgrave" unicode="&#xdd;" horiz-adv-x="1243" 
d="M1044 1624q-13 -29 -190 -349t-180 -321q-5 -2 -237.5 261.5t-279.5 327.5q-67 6 -67 -90q0 -87 40 -124q83 -75 235 -269q174 -221 225 -275q8 -9 8 -30q0 -66 -118.5 -306.5t-116.5 -273.5q11 -153 89 -175q50 -14 160 293q132 366 146 388q70 111 231 401
q192 345 192 389q1 64 -28 117t-69 53q-21 0 -40 -17zM695 1917q-43 -21 -118 -91q-88 -82 -88 -126q0 -30 44 -36l128 94q84 63 106 98q20 12 -7 53q-14 6 -65 8z" />
    <glyph glyph-name="Wacute" unicode="&#xde;" horiz-adv-x="1317" 
d="M741 1572q-279 13 -301 13q-313 0 -318 -89q-2 -24 28 -85.5t52 -77.5q10 -8 35 -8q35 0 183.5 31t222.5 31q73 0 111 -24q26 -29 82 -65q36 -8 72 -3q48 6 51 38q1 14 1 27q0 92 -60.5 149.5t-158.5 62.5zM388 440q4 -70 72 -162q35 -11 51 -11q63 0 80 154q8 72 94 72
q43 0 169.5 -28.5t188.5 -28.5q191 0 194 222q1 153 -132 226q-5 2 -250 86q-135 47 -135 135q0 8 2 24t2 24q0 42 -40 74q-47 38 -94 75q-55 5 -134 -380q-75 -363 -68 -482zM115 210q8 -61 15 -123q21 -82 82 -85q82 -5 218 6q158 13 218 13q108 0 199.5 -21t99.5 -2
q10 23 10 47q0 105 -141 175q-47 -12 -119 -12q-61 0 -203 13.5t-209 13.5q-107 0 -170 -25zM665 654q-10 23 -10 54q0 79 56 187q381 -112 362 -204q-11 -55 -82 -92q-67 -34 -149 -34q-138 0 -177 89z" />
    <glyph glyph-name="wacute" unicode="&#xdf;" horiz-adv-x="1785" 
d="M230 1665q-136 -95 -136 -211q0 -109 132 -218l37 4q-10 32 -10 62q0 113 125 182q116 64 283 64q142 0 258 -50q127 -54 183 -154q23 -42 23 -92q0 -88 -72 -191q-54 -79 -122 -131q-52 -40 -80 -55q-45 -25 -94 -28q25 104 49 208q42 179 42 288q0 187 -117 197
l-33 -35q-5 -29 -229 -891q-197 -755 -183 -881q5 -44 42.5 -94.5t85.5 -79.5q14 -8 26 -8q35 0 35 76q0 51 -11 81l12 6q1 54 59.5 327t76.5 305q25 45 67 225q38 166 64 193q46 -91 118 -150l60 2q40 59 118 59q45 0 127 -21q203 -51 302 -190q49 -68 49 -120
q0 -110 -218 -156q-130 -27 -184 -27q-100 0 -186 55q-23 15 -106 140q-79 120 -101 127q-14 4 -25 4q-55 0 -50 -89q20 -13 93 -123q76 -113 92 -127q192 -156 407 -156q48 0 101 8q217 31 281 104q51 56 51 127q0 95 -96 230q-185 261 -410 354q8 46 75 159q61 103 61 171
q0 29 -9 57q-76 256 -321 405q-215 131 -461 131q-177 0 -281 -73z" />
    <glyph glyph-name="Wdieresis" unicode="&#xe0;" horiz-adv-x="1103" 
d="M97 483q-12 -86 -12 -160q0 -160 55 -247q51 -82 138 -82q138 0 287 189q21 -11 45 -59q26 -52 47 -69q51 -42 101 -83q57 -41 104 -41q62 0 127 71q31 35 31 60q0 41 -63 41q-18 0 -47 -7t-43 -7q-74 0 -133 80q-86 74 -86 199q0 41 26 181q15 80 15 147q0 126 -51 194
q-48 63 -127 63q-117 0 -232 -122q-127 -133 -182 -348zM448 711q40 -77 40 -178q0 -140 -68 -258q-70 -121 -162 -134q-38 94 -38 184q0 241 228 386zM421 1396q48 -22 129 -95q97 -87 97 -133q0 -32 -49 -39q-70 50 -140 99q-91 67 -115 104q-21 13 8 57q15 5 70 7z" />
    <glyph glyph-name="wdieresis" unicode="&#xe1;" horiz-adv-x="1111" 
d="M115 481q-12 -86 -12 -160q0 -160 54 -247q52 -82 139 -82q138 0 286 189q22 -11 45 -58q27 -53 48 -70q50 -41 101 -83q57 -41 104 -41q62 0 127 72q31 34 31 60q0 40 -63 40q-18 0 -47 -7t-43 -7q-74 0 -134 80q-86 75 -86 199q0 42 27 181q15 81 15 148q0 125 -51 193
q-48 63 -127 63q-117 0 -232 -122q-127 -133 -182 -348zM466 709q40 -77 40 -177q0 -140 -69 -260t-162 -133q-37 94 -37 184q0 241 228 386zM591 1430q-43 -21 -118 -91q-89 -82 -89 -125q0 -30 45 -37l128 94q84 63 106 98q19 12 -8 54q-13 5 -64 7z" />
    <glyph glyph-name="Ygrave" unicode="&#xe2;" horiz-adv-x="1095" 
d="M80 478q-12 -87 -12 -161q0 -160 55 -246q51 -82 138 -82q139 0 287 188q21 -10 45 -58q26 -52 47 -69q51 -42 101 -83q58 -41 104 -41q63 0 127 71q31 34 31 60q0 40 -63 40q-17 0 -46 -6.5t-44 -6.5q-74 0 -133 80q-86 74 -86 199q0 41 26 181q15 80 15 147
q0 126 -51 194q-48 63 -127 63q-116 0 -232 -122q-127 -134 -182 -348zM431 705q40 -76 40 -177q0 -140 -68 -258q-70 -122 -162 -135q-38 95 -38 184q0 242 228 386zM391 1408h111l109 -213h-56l-108 106l-103 -106h-56z" />
    <glyph glyph-name="ygrave" unicode="&#xe3;" horiz-adv-x="1125" 
d="M80 478q-12 -87 -12 -161q0 -160 55 -246q51 -82 138 -82q139 0 287 188q21 -10 45 -58q26 -52 47 -69q51 -42 101 -83q58 -41 104 -41q63 0 127 71q31 34 31 60q0 40 -63 40q-17 0 -46 -6.5t-44 -6.5q-74 0 -133 80q-86 74 -86 199q0 41 26 181q15 80 15 147
q0 126 -51 194q-48 63 -127 63q-116 0 -232 -122q-127 -134 -182 -348zM431 705q40 -76 40 -177q0 -140 -68 -258q-70 -122 -162 -135q-38 95 -38 184q0 242 228 386zM884 1426h-83q-49 -84 -132 -84q-20 0 -108.5 41.5t-129.5 40.5q-148 -6 -242 -206h83q57 77 157 74
q13 -1 94.5 -37.5t140.5 -36.5q138 0 220 208z" />
    <glyph glyph-name="glyph549" unicode="&#xe4;" horiz-adv-x="1133" 
d="M80 478q-12 -87 -12 -161q0 -160 55 -246q51 -82 138 -82q139 0 287 188q21 -10 45 -58q26 -52 47 -69q51 -42 101 -83q58 -41 104 -41q63 0 127 71q31 34 31 60q0 40 -63 40q-17 0 -46 -6.5t-44 -6.5q-74 0 -133 80q-86 74 -86 199q0 41 26 181q15 80 15 147
q0 126 -51 194q-48 63 -127 63q-116 0 -232 -122q-127 -134 -182 -348zM431 705q40 -76 40 -177q0 -140 -68 -258q-70 -122 -162 -135q-38 95 -38 184q0 242 228 386zM603 1340q0 40 25 68t61 28t61 -28t25 -68q0 -39 -25 -67t-61 -28t-61 28t-25 67zM283 1340q0 40 25.5 68
t61.5 28t61 -28t25 -68q0 -39 -25 -67t-61 -28t-61.5 28t-25.5 67z" />
    <glyph glyph-name="endash" unicode="&#xe5;" horiz-adv-x="1106" 
d="M80 478q-12 -87 -12 -161q0 -160 55 -246q51 -82 138 -82q139 0 287 188q21 -10 45 -58q26 -52 47 -69q51 -42 101 -83q58 -41 104 -41q63 0 127 71q31 34 31 60q0 40 -63 40q-17 0 -46 -6.5t-44 -6.5q-74 0 -133 80q-86 74 -86 199q0 41 26 181q15 80 15 147
q0 126 -51 194q-48 63 -127 63q-116 0 -232 -122q-127 -134 -182 -348zM431 705q40 -76 40 -177q0 -140 -68 -258q-70 -122 -162 -135q-38 95 -38 184q0 242 228 386zM519 1279q35 0 62.5 22.5t27.5 59.5q-1 41 -28 69t-62 28q-37 0 -63 -24q-29 -27 -28 -70q0 -37 28 -61
t63 -24zM388 1369q0 53 38 90.5t92 37.5t92 -37.5t38 -90.5t-38 -90.5t-92 -37.5t-92 37.5t-38 90.5z" />
    <glyph glyph-name="emdash" unicode="&#xe6;" horiz-adv-x="1727" 
d="M94 481q-12 -87 -12 -161q0 -160 54 -247q52 -81 139 -81q138 0 286 188q22 -10 45 -58q27 -53 48 -70q50 -41 101 -82q57 -42 104 -42q62 0 127 72q12 -1 26 -1q73 0 286 66q204 63 300 56q52 15 52 68q0 43 -33 81t-73 33q-57 -8 -276 -77q-196 -62 -289 -62
q-73 0 -114 31q-35 26 -35 92q0 73 39 169q36 89 50 82q123 -67 252 -67q208 0 286 181q13 33 13 71q0 85 -60 156.5t-137 71.5q-16 0 -32 -3q-254 -102 -297 -127q-148 -87 -273 -274q15 80 15 147q0 126 -51 194q-48 62 -127 62q-117 0 -232 -121q-127 -134 -182 -348z
M445 708q40 -77 40 -177q0 -140 -69 -260t-162 -133q-37 95 -37 184q0 242 228 386zM1255 787q15 2 29 2q78 0 78 -44q0 -19 -20 -39q-47 -49 -128 -62l-134 -12q-19 -2 -31 -2q-28 0 -28 11q0 22 107 83q95 53 127 63z" />
    <glyph glyph-name="afii00208" unicode="&#xe7;" horiz-adv-x="1035" 
d="M911 144q4 3 4 8q0 20 -60 44.5t-94 19.5q-47 -22 -147 -47q-123 -31 -211 -31q-111 0 -137 52q10 152 112 299q113 164 273 206q20 -17 20 -40q0 -28 -45 -96q-43 -64 -36 -93q12 -12 44 -11q31 1 47 13q41 30 78 99q40 73 40 130q0 21 -6 37q-38 96 -137 96
q-132 0 -314 -142q-56 -44 -142 -212q-91 -179 -91 -275q0 -28 9 -45q87 -150 310 -161l-77 -175l111 -73q94 -85 94 -201q0 -39 -11 -78q-49 -171 -221 -201l-18 -64q32 -9 65 -9q106 0 202 73q91 69 117 159q12 43 12 87q0 101 -60.5 184t-160.5 115l-61 35l59 153
q120 14 243 53q135 42 189 91z" />
    <glyph glyph-name="underscoredbl" unicode="&#xe8;" horiz-adv-x="1166" 
d="M649 948q-142 -57 -215 -104q-6 -4 -80 -64q-230 -185 -230 -435q0 -78 21 -162.5t106 -136.5q78 -47 169 -47q73 0 286 66q204 63 300 56q52 15 52 68q0 43 -33 81t-73 33q-57 -8 -276 -77q-196 -62 -289 -62q-73 0 -114 31q-35 26 -35 92q0 73 39 169q36 89 50 82
q123 -67 252 -67q208 0 286 181q13 33 13 71q0 85 -60 156.5t-137 71.5q-16 0 -32 -3zM663 787q15 2 29 2q78 0 78 -44q0 -19 -20 -39q-47 -49 -128 -62l-134 -12q-19 -2 -31 -2q-28 0 -28 11q0 22 107 83q95 53 127 63zM484 1439q48 -22 129 -95q97 -87 97 -133
q0 -32 -49 -39q-70 50 -140 99q-91 67 -115 104q-21 13 8 57q15 5 70 7z" />
    <glyph glyph-name="quoteleft" unicode="&#xe9;" horiz-adv-x="1166" 
d="M649 948q-142 -57 -215 -104q-6 -4 -80 -64q-230 -185 -230 -435q0 -78 21 -162.5t106 -136.5q78 -47 169 -47q73 0 286 66q204 63 300 56q52 15 52 68q0 43 -33 81t-73 33q-57 -8 -276 -77q-196 -62 -289 -62q-73 0 -114 31q-35 26 -35 92q0 73 39 169q36 89 50 82
q123 -67 252 -67q208 0 286 181q13 33 13 71q0 85 -60 156.5t-137 71.5q-16 0 -32 -3zM663 787q15 2 29 2q78 0 78 -44q0 -19 -20 -39q-47 -49 -128 -62l-134 -12q-19 -2 -31 -2q-28 0 -28 11q0 22 107 83q95 53 127 63zM622 1395q-43 -21 -118 -91q-89 -82 -89 -125
q0 -30 45 -37l128 94q84 63 106 98q19 12 -8 54q-13 5 -64 7z" />
    <glyph glyph-name="quoteright" unicode="&#xea;" horiz-adv-x="1166" 
d="M649 948q-142 -57 -215 -104q-6 -4 -80 -64q-230 -185 -230 -435q0 -78 21 -162.5t106 -136.5q78 -47 169 -47q73 0 286 66q204 63 300 56q52 15 52 68q0 43 -33 81t-73 33q-57 -8 -276 -77q-196 -62 -289 -62q-73 0 -114 31q-35 26 -35 92q0 73 39 169q36 89 50 82
q123 -67 252 -67q208 0 286 181q13 33 13 71q0 85 -60 156.5t-137 71.5q-16 0 -32 -3zM663 787q15 2 29 2q78 0 78 -44q0 -19 -20 -39q-47 -49 -128 -62l-134 -12q-19 -2 -31 -2q-28 0 -28 11q0 22 107 83q95 53 127 63zM575 1362h112l109 -213h-56l-109 106l-102 -106h-56z
" />
    <glyph glyph-name="quotesinglbase" unicode="&#xeb;" horiz-adv-x="1166" 
d="M649 948q-142 -57 -215 -104q-6 -4 -80 -64q-230 -185 -230 -435q0 -78 21 -162.5t106 -136.5q78 -47 169 -47q73 0 286 66q204 63 300 56q52 15 52 68q0 43 -33 81t-73 33q-57 -8 -276 -77q-196 -62 -289 -62q-73 0 -114 31q-35 26 -35 92q0 73 39 169q36 89 50 82
q123 -67 252 -67q208 0 286 181q13 33 13 71q0 85 -60 156.5t-137 71.5q-16 0 -32 -3zM663 787q15 2 29 2q78 0 78 -44q0 -19 -20 -39q-47 -49 -128 -62l-134 -12q-19 -2 -31 -2q-28 0 -28 11q0 22 107 83q95 53 127 63zM706 1289q0 40 25 68t61 28t61 -28t25 -68
q0 -39 -25 -67t-61 -28t-61 28t-25 67zM386 1289q0 40 25.5 68t61.5 28t61 -28t25 -68q0 -39 -25 -67t-61 -28t-61.5 28t-25.5 67z" />
    <glyph glyph-name="quotereversed" unicode="&#xec;" horiz-adv-x="1054" 
d="M410 593q-9 -47 -156 -240q-143 -187 -142 -189q22 -84 151 -145q4 27 80 133t96 106q3 -1 4 -3q139 -268 291 -268q42 0 91 17q94 32 116 154q10 51 10 81q0 71 -50 101q-3 1 -5 1q-13 0 -88 -92.5t-126 -92.5q-42 0 -76 53q-39 60 -39 153q0 80 37 231q39 159 41 212
q4 76 -37 121q-38 42 -98 42q-18 0 -36 -4q-21 -128 -64 -371zM492 1439q48 -22 129 -95q97 -87 97 -133q0 -32 -49 -39q-70 50 -140 99q-91 67 -115 104q-21 13 8 57q15 5 70 7z" />
    <glyph glyph-name="quotedblleft" unicode="&#xed;" horiz-adv-x="975" 
d="M359 603q-9 -47 -156 -240q-143 -187 -142 -189q23 -83 151 -145q5 27 81 133t95 106q3 0 4 -2q139 -268 291 -268q42 0 91 17q94 32 116 153q10 52 10 81q0 72 -50 101q-3 2 -5 2q-12 0 -87.5 -92.5t-126.5 -92.5q-41 0 -76 53q-38 60 -38 152q0 80 36 232
q39 159 41 211q4 76 -37 122q-38 42 -98 42q-18 0 -36 -5q-21 -128 -64 -371zM584 1407q-43 -21 -118 -91q-89 -82 -89 -125q0 -30 45 -37l128 94q84 63 106 98q19 12 -8 54q-13 5 -64 7z" />
    <glyph glyph-name="quotedblright" unicode="&#xee;" horiz-adv-x="1062" 
d="M389 608q-10 -47 -157 -240q-142 -187 -142 -189q23 -83 152 -145q4 27 80 133t96 106q3 0 4 -2q138 -268 290 -268q42 0 91 17q94 32 117 153q9 52 9 81q0 72 -50 101q-2 2 -5 2q-12 0 -87.5 -92.5t-126.5 -92.5q-41 0 -75 53q-39 60 -39 152q0 80 37 231q38 160 41 212
q4 76 -38 122q-38 42 -97 42q-19 0 -37 -5q-20 -128 -63 -371zM489 1432h112l109 -213h-56l-109 106l-102 -106h-56z" />
    <glyph glyph-name="quotedblbase" unicode="&#xef;" horiz-adv-x="1059" 
d="M393 607q-9 -47 -156 -240q-143 -187 -142 -189q22 -83 151 -145q4 27 80 133t96 106q3 0 4 -2q139 -268 291 -268q42 0 91 16q94 32 116 154q10 51 10 81q0 71 -50 101q-3 1 -5 1q-13 0 -88 -92.5t-126 -92.5q-42 0 -76 53q-39 61 -39 153q0 80 37 231q39 159 41 212
q4 76 -35.5 120t-99.5 44q-18 0 -36 -5q-21 -128 -64 -371zM602 1322q0 40 25 68t61 28t61 -28t25 -68q0 -39 -25 -67t-61 -28t-61 28t-25 67zM282 1322q0 40 25.5 68t61.5 28t61 -28t25 -68q0 -39 -25 -67t-61 -28t-61.5 28t-25.5 67z" />
    <glyph glyph-name="glyph561" unicode="&#xf0;" horiz-adv-x="998" 
d="M829 729q-4 65 -209 525h220v152h-292q-159 353 -181 422q-2 8 -10 8q-10 0 -37 -17t-33 -18q-12 -32 -12 -73q0 -120 100 -322h-239v-152h322q21 -37 140 -228q59 -95 46 -95q-4 0 -10 3q-13 -9 -68 -26q-50 -15 -80 -46q-84 -82 -146 -237q-65 -160 -65 -297
q0 -133 68 -227q76 -104 205 -104q55 0 110 22q52 20 121 129q75 117 85 214q2 11 2 27q0 45 -16 164q-18 134 -21 176zM677 718q21 -50 29 -152q9 -124 19 -249q-64 -134 -172 -134q-53 0 -92 32t-39 73q0 15 6 29q-4 34 -4 65q0 162 93 265q73 80 139 80q17 0 21 -9z" />
    <glyph glyph-name="dagger" unicode="&#xf1;" horiz-adv-x="1589" 
d="M281 756q-199 -74 -199 -204q0 -70 64 -134q7 28 95 87q98 65 164 65q33 0 53 -18q37 -34 37 -75q0 -37 -54.5 -138.5t-54.5 -170.5q0 -84 64 -168q54 17 126 74q76 60 91 104q88 267 303 267q36 0 78 -8q3 -41 -19 -128q-24 -92 -24 -135q0 -98 83 -164q75 -61 224 -61
q97 0 144 32.5t47 91.5q0 85 -92 93q-147 -57 -187 -57q-44 0 -43 37q2 65 15 147q12 77 12 107q0 95 -87 227q-102 28 -193 28q-198 0 -344 -131q-91 243 -244 243q-29 0 -59 -11zM1245 1216h-83q-49 -84 -132 -84q-20 0 -108.5 41.5t-129.5 40.5q-148 -6 -242 -206h83
q57 77 157 74q13 -1 94.5 -37.5t140.5 -36.5q138 0 220 208z" />
    <glyph glyph-name="daggerdbl" unicode="&#xf2;" 
d="M409 1077q-315 -277 -315 -623q0 -70 15 -168q13 -89 12 -110q66 -131 67 -132q40 -60 99 -60q32 0 74 16q249 98 399 394q23 22 131 93q100 66 110 80q44 63 44 117q0 62 -58 62q-23 0 -54 -11q4 41 4 78q0 187 -107 282q-62 55 -118 55q-63 0 -126 -69q-53 27 -97 27
q-46 0 -80 -31zM570 470q5 -11 5 -25q0 -68 -95.5 -151t-169.5 -83q-60 0 -69 66q-6 48 -6 94q0 250 181 446q33 -5 39 -60q13 -110 18 -129q24 -90 97 -158zM675 922q39 17 74 17q99 0 99 -101q0 -98 -113 -201q-68 -61 -102 -61t-34 59q0 63 36 179q32 105 40 108z
M545 1592q48 -22 129 -95q97 -87 97 -133q0 -32 -49 -39q-70 50 -140 99q-91 67 -115 104q-21 13 8 57q15 5 70 7z" />
    <glyph glyph-name="bullet" unicode="&#xf3;" 
d="M409 1077q-315 -276 -315 -622q0 -71 15 -169q13 -89 12 -110q66 -131 67 -132q40 -60 99 -60q32 0 74 16q249 98 399 394q23 22 131 93q100 66 110 80q44 63 44 117q0 62 -58 62q-23 0 -54 -11q4 41 4 78q0 187 -107 282q-62 55 -118 55q-63 0 -126 -69q-53 27 -97 27
q-46 0 -80 -31zM570 470q5 -11 5 -25q0 -68 -95.5 -151t-169.5 -83q-60 0 -69 66q-6 48 -6 94q0 250 181 446q33 -5 39 -60q13 -110 18 -129q24 -90 97 -158zM675 922q39 17 74 17q99 0 99 -101q0 -98 -113 -201q-68 -61 -102 -61t-34 59q0 63 36 179q32 105 40 108z
M658 1593q-43 -21 -118 -91q-89 -82 -89 -125q0 -30 45 -37l128 94q84 63 106 98q19 12 -8 54q-13 5 -64 7z" />
    <glyph glyph-name="ellipsis" unicode="&#xf4;" 
d="M409 1077q-315 -276 -315 -622q0 -71 15 -169q13 -89 12 -110q66 -131 67 -132q40 -60 99 -60q32 0 74 16q249 98 399 394q23 22 131 93q100 66 110 80q44 63 44 117q0 62 -58 62q-23 0 -54 -11q4 41 4 78q0 187 -107 282q-62 55 -118 55q-63 0 -126 -69q-53 27 -97 27
q-46 0 -80 -31zM570 470q5 -11 5 -25q0 -68 -95.5 -151t-169.5 -83q-60 0 -69 66q-6 48 -6 94q0 250 181 446q33 -5 39 -60q13 -110 18 -129q24 -90 97 -158zM675 922q39 17 74 17q99 0 99 -101q0 -98 -113 -201q-68 -61 -102 -61t-34 59q0 63 36 179q32 105 40 108z
M576 1579h112l109 -213h-56l-109 106l-102 -106h-56z" />
    <glyph glyph-name="perthousand" unicode="&#xf5;" 
d="M409 1077q-315 -276 -315 -622q0 -71 15 -169q13 -89 12 -110q66 -131 67 -132q40 -60 99 -60q32 0 74 16q249 98 399 394q23 22 131 93q100 66 110 80q44 63 44 117q0 62 -58 62q-23 0 -54 -11q4 41 4 78q0 187 -107 282q-62 55 -118 55q-63 0 -126 -69q-53 27 -97 27
q-46 0 -80 -31zM570 470q5 -11 5 -25q0 -68 -95.5 -151t-169.5 -83q-60 0 -69 66q-6 48 -6 94q0 250 181 446q33 -5 39 -60q13 -110 18 -129q24 -90 97 -158zM675 922q39 17 74 17q99 0 99 -101q0 -98 -113 -201q-68 -61 -102 -61t-34 59q0 63 36 179q32 105 40 108z
M972 1574h-83q-49 -84 -132 -84q-20 0 -108.5 41.5t-129.5 40.5q-148 -6 -242 -206h83q57 77 157 74q13 -1 94.5 -37.5t140.5 -36.5q138 0 220 208z" />
    <glyph glyph-name="minute" unicode="&#xf6;" 
d="M409 1077q-315 -276 -315 -622q0 -71 15 -169q13 -89 12 -110q66 -131 67 -132q40 -60 99 -60q32 0 74 16q249 98 399 394q23 22 131 93q100 66 110 80q44 63 44 117q0 62 -58 62q-23 0 -54 -11q4 41 4 78q0 187 -107 282q-62 55 -118 55q-63 0 -126 -69q-53 27 -97 27
q-46 0 -80 -31zM570 470q5 -11 5 -25q0 -68 -95.5 -151t-169.5 -83q-60 0 -69 66q-6 48 -6 94q0 250 181 446q33 -5 39 -60q13 -110 18 -129q24 -90 97 -158zM675 922q39 17 74 17q99 0 99 -101q0 -98 -113 -201q-68 -61 -102 -61t-34 59q0 63 36 179q32 105 40 108z
M719 1521q0 40 25 68t61 28t61 -28t25 -68q0 -39 -25 -67t-61 -28t-61 28t-25 67zM399 1521q0 40 25.5 68t61.5 28t61 -28t25 -68q0 -39 -25 -67t-61 -28t-61.5 28t-25.5 67z" />
    <glyph glyph-name="second" unicode="&#xf7;" horiz-adv-x="1117" 
d="M115 733v-177h859v177h-859zM420 130q0 54 38 92.5t92 38.5t92 -38.5t38 -92.5t-38 -92t-92 -38t-92 38t-38 92zM420 1161q0 54 38 92.5t92 38.5t92 -38.5t38 -92.5t-38 -92t-92 -38t-92 38t-38 92z" />
    <glyph glyph-name="guilsinglleft" unicode="&#xf8;" horiz-adv-x="1398" 
d="M1053 1095q-62 55 -118 55q-63 0 -126 -69q-53 27 -97 27q-46 0 -80 -31q-313 -275 -313 -656q0 -35 3 -72l-218 -179l43 -93l185 154l76 -160q50 -83 117 -83q27 0 59 12q249 98 399 394q29 27 98 177q73 161 75 164q15 81 10 193l152 127l-60 64l-125 -116
q-30 37 -80 92zM958 637q-97 -185 -261 -336q-209 -193 -245 31l567 473q-35 -121 -61 -168zM896 948q9 4 21 4q21 0 55 -15q20 -10 41 -19l-533 -439q41 157 133 276q116 150 283 193z" />
    <glyph glyph-name="guilsinglright" unicode="&#xf9;" horiz-adv-x="1446" 
d="M114 290q1 -48 41 -123q36 -69 79 -116.5t160 -47.5q74 0 163 18q17 3 105 88q85 83 111 83q7 0 11 -4q221 -215 365 -215q61 0 126 28q10 5 44.5 62.5t34.5 79.5q0 4 -2 7q-27 38 -49 27q-122 -64 -214 -64q-121 0 -196 108q-4 7 -4 19q0 33 74.5 219.5t74.5 264.5
q0 57 -33 78q-62 40 -83 65l-21 -11q7 -114 -77 -300q-83 -182 -175 -266q-177 -160 -303 -160q-99 0 -99 81q0 46 49 232t49 288q0 103 -32.5 146.5t-104.5 58.5q-15 -19 -55 -292.5t-39 -353.5zM549 1450q48 -22 129 -95q97 -87 97 -133q0 -32 -49 -39q-70 50 -140 99
q-91 67 -115 104q-21 13 8 57q15 5 70 7z" />
    <glyph glyph-name="exclamdbl" unicode="&#xfa;" horiz-adv-x="1446" 
d="M114 290q1 -48 41 -123q36 -69 79 -116.5t160 -47.5q74 0 163 18q17 3 105 88q85 83 111 83q7 0 11 -4q221 -215 365 -215q61 0 126 28q10 5 44.5 62.5t34.5 79.5q0 4 -2 7q-27 38 -49 27q-122 -64 -214 -64q-121 0 -196 108q-4 7 -4 19q0 33 74.5 219.5t74.5 264.5
q0 57 -33 78q-62 40 -83 65l-21 -11q7 -114 -77 -300q-83 -182 -175 -266q-177 -160 -303 -160q-99 0 -99 81q0 46 49 232t49 288q0 103 -32.5 146.5t-104.5 58.5q-15 -19 -55 -292.5t-39 -353.5zM755 1448q-43 -21 -118 -91q-89 -82 -89 -125q0 -30 45 -37l128 94
q84 63 106 98q19 12 -8 54q-13 5 -64 7z" />
    <glyph glyph-name="radicalex" unicode="&#xfb;" horiz-adv-x="1446" 
d="M114 290q1 -48 41 -123q36 -69 79 -116.5t160 -47.5q74 0 163 18q17 3 105 88q85 83 111 83q7 0 11 -4q221 -215 365 -215q61 0 126 28q10 5 44.5 62.5t34.5 79.5q0 4 -2 7q-27 38 -49 27q-122 -64 -214 -64q-121 0 -196 108q-4 7 -4 19q0 33 74.5 219.5t74.5 264.5
q0 57 -33 78q-62 40 -83 65l-21 -11q7 -114 -77 -300q-83 -182 -175 -266q-177 -160 -303 -160q-99 0 -99 81q0 46 49 232t49 288q0 103 -32.5 146.5t-104.5 58.5q-15 -19 -55 -292.5t-39 -353.5zM568 1449h112l109 -213h-56l-109 106l-102 -106h-56z" />
    <glyph glyph-name="fraction" unicode="&#xfc;" horiz-adv-x="1446" 
d="M114 290q1 -48 41 -123q36 -69 79 -116.5t160 -47.5q74 0 163 18q17 3 105 88q85 83 111 83q7 0 11 -4q221 -215 365 -215q61 0 126 28q10 5 44.5 62.5t34.5 79.5q0 4 -2 7q-27 38 -49 27q-122 -64 -214 -64q-121 0 -196 108q-4 7 -4 19q0 33 74.5 219.5t74.5 264.5
q0 57 -33 78q-62 40 -83 65l-21 -11q7 -114 -77 -300q-83 -182 -175 -266q-177 -160 -303 -160q-99 0 -99 81q0 46 49 232t49 288q0 103 -32.5 146.5t-104.5 58.5q-15 -19 -55 -292.5t-39 -353.5zM693 1286q0 40 25 68t61 28t61 -28t25 -68q0 -39 -25 -67t-61 -28t-61 28
t-25 67zM373 1286q0 40 25.5 68t61.5 28t61 -28t25 -68q0 -39 -25 -67t-61 -28t-61.5 28t-25.5 67z" />
    <glyph glyph-name="nsuperior" unicode="&#xfd;" horiz-adv-x="1142" 
d="M192 773q-50 -282 -50 -356q0 -65 12 -117q118 -170 225 -170q51 0 101 38q29 25 90 57q5 -52 13 -157q-155 -55 -289 -230q-147 -193 -147 -392q0 -179 128 -321q131 -145 255 -145q42 0 75 20q132 80 132 493q0 69 -4 197t-4 178q0 59 4 99q108 60 287 141q34 10 34 43
q0 37 -35 85q-33 45 -52 43q-11 -1 -125 -57.5t-133 -56.5q-4 0 -5 2q-13 19 -13 37q0 21 19 48q29 41 30 44q90 178 78 256q-11 68 -130 177q-76 -47 -99 -125q-12 -39 -14 -133q-2 -74 -24 -98q-106 -111 -183 -111q-34 0 -67 19q-14 7 -14 35q0 48 44.5 170t44.5 130
q1 74 -52 136q-48 58 -93 58q-33 0 -39 -37zM606 -295q0 -190 -30 -326q-43 -192 -135 -192q-39 0 -84 34q-39 28 -39 102q0 89 51 216q45 113 75 135q9 7 64 98q49 82 71 82q27 0 27 -149zM627 1288q-43 -21 -118 -91q-89 -82 -89 -125q0 -30 45 -37l128 94q84 63 106 98
q19 12 -8 54q-13 5 -64 7z" />
    <glyph glyph-name="glyph575" unicode="&#xfe;" horiz-adv-x="1037" 
d="M79 -270q5 -69 72 -162q4 -1 7 -1q44 0 100 143q54 137 69 271q7 72 93 72q44 0 170.5 -28.5t188.5 -28.5q191 0 194 222q1 153 -133 226q-4 2 -249 87q-135 46 -135 134q0 11 2 24q1 9 30 112q25 88 25 141q0 125 -126 138q-56 4 -188 -624q-127 -607 -120 -726z
M401 214q-11 23 -11 54q0 79 57 188q381 -113 362 -205q-11 -55 -82 -92q-67 -34 -149 -34q-138 0 -177 89z" />
    <glyph glyph-name="franc" unicode="&#xff;" horiz-adv-x="1089" 
d="M135 773q-49 -282 -49 -356q0 -65 12 -117q117 -170 224 -170q51 0 101 38q30 25 90 57q6 -52 13 -157q-154 -55 -288 -230q-148 -193 -148 -392q0 -179 129 -321q131 -145 255 -145q42 0 75 20q132 80 132 493q0 69 -4 197t-4 178q0 59 3 99q109 60 288 141q34 10 34 43
q0 37 -35 85q-34 45 -52 43q-11 -1 -125 -57.5t-134 -56.5q-3 0 -5 2q-12 19 -12 37q0 21 19 48q28 41 30 44q89 178 77 256q-11 68 -129 177q-77 -47 -100 -125q-11 -39 -13 -133q-2 -74 -24 -98q-107 -111 -183 -111q-35 0 -68 19q-13 7 -13 35q0 48 44.5 170t44.5 130
q0 74 -52 136q-48 58 -94 58q-32 0 -39 -37zM550 -295q0 -190 -30 -326q-43 -192 -136 -192q-38 0 -84 34q-39 28 -39 102q0 89 51 216q46 113 75 135q10 7 64 98q50 82 71 82q28 0 28 -149zM537 1153q0 40 25 68t61 28t61 -28t25 -68q0 -39 -25 -67t-61 -28t-61 28t-25 67z
M217 1153q0 40 25.5 68t61.5 28t61 -28t25 -68q0 -39 -25 -67t-61 -28t-61.5 28t-25.5 67z" />
    <glyph glyph-name="SF480000" unicode="&#x14f;" horiz-adv-x="1195" 
d="M441 1098q-315 -277 -315 -623q0 -71 15 -169q14 -88 12 -110q66 -130 68 -132q40 -60 98 -60q33 0 74 16q250 98 400 394q23 22 131 93q100 66 110 80q43 63 43 117q0 63 -58 63q-23 0 -53 -12q4 41 4 78q0 187 -107 282q-62 55 -118 55q-63 0 -127 -69q-53 27 -96 27
q-47 0 -81 -30zM602 490q5 -11 5 -25q0 -68 -95 -151t-170 -83q-60 0 -69 66q-6 48 -6 95q0 249 181 445q33 -5 39 -60q13 -110 18 -128q24 -91 97 -159zM707 942q39 18 74 18q99 0 99 -101q0 -99 -113 -201q-68 -62 -102 -62q-33 0 -33 59q0 63 36 180q32 104 39 107z
M368 1634h49q42 -129 178 -129q142 0 184 129h49q9 -95 -74 -177q-78 -76 -159 -76q-89 0 -158.5 69.5t-69.5 161.5q0 11 1 22z" />
    <glyph glyph-name="SF410000" unicode="&#x150;" horiz-adv-x="1417" 
d="M697 1584l-308 -274q-148 -155 -224 -387q-65 -200 -65 -375q0 -346 247 -548q32 -3 64 -3q335 0 600 266q278 278 265 652q-9 292 -170 485q-166 198 -409 184zM938 1337q209 -62 209 -328q0 -148 -70 -306q-117 -190 -273 -330q-202 -182 -378 -182q-74 0 -140 33
q-22 76 -22 192q0 240 77 468q84 250 207 290q-3 -26 -3 -50q0 -166 77 -166q15 0 18 38q4 46 11.5 56t16.5 10q11 0 39 -25t43 -25q16 -1 19 63q1 15 5 20q24 29 72 152q37 93 77 93q7 0 15 -3zM688 1155q18 -5 18 -39q0 -50 -27 -42q-15 5 -15 34q0 55 24 47zM804 1924
q2 -59 -60 -117l-137 -107h-93q79 77 158 155q75 71 115 71q9 0 17 -2zM1028 1922q2 -59 -59 -117q-1 0 -138 -107h-93q79 77 159 155q74 71 114 71q9 0 17 -2z" />
    <glyph glyph-name="SF460000" unicode="&#x152;" horiz-adv-x="1957" 
d="M714 1584l-308 -274q-148 -155 -224 -387q-65 -200 -65 -375q0 -346 247 -548q24 -2 49 -2q200 0 413 112q51 -49 149 -82q93 -30 179 -30q61 0 96 17q57 27 196 138q156 125 156 165q-1 92 -14 105q-40 13 -81 25q-13 4 -91 -39q-64 -36 -94 -56q-179 -124 -301 -124
q-76 0 -116 54q22 95 66 212q52 135 95 187q52 -61 101 -95q66 0 535 208q15 34 15 68q0 66 -52 111.5t-133 45.5q-33 0 -54 -29q-15 -24 -29 -49q-77 -20 -287 -112q-2 11 -2 23q0 42 36.5 135t36.5 145q0 65 -44 121q93 45 312 76t304 72q29 13 29 52q0 67 -57 121
q-40 37 -132 37q-158 0 -576 -150q-166 133 -355 122zM303 224q-22 76 -22 192q0 240 77 468q84 250 207 290q-3 -26 -3 -50q0 -166 77 -166q15 0 18 38q4 46 11.5 56t16.5 10q11 0 39 -25t43 -25q16 -1 19 63q1 15 5 20q24 29 72 152q37 93 77 93q7 0 15 -3q27 -23 72 -56
q-91 -326 -259 -677q-41 -85 -20 -298q-164 -110 -316 -110q-72 0 -129 28zM705 1155q18 -5 18 -39q0 -50 -27 -42q-15 5 -15 34q0 55 24 47z" />
    <glyph glyph-name="SF400000" unicode="&#x153;" horiz-adv-x="1785" 
d="M830 1108q-62 54 -118 54q-63 0 -126 -68q-54 27 -97 27q-46 0 -81 -31q-314 -277 -314 -623q0 -70 14 -168q14 -89 12 -110q67 -131 68 -133q40 -59 99 -59q32 0 74 16q249 97 399 394q-4 -183 6 -225q21 -84 106 -136q78 -47 169 -47q73 0 286 66q204 63 300 56
q52 15 52 68q0 43 -33 81t-73 33q-57 -8 -276 -77q-196 -62 -289 -62q-73 0 -114 31q-35 26 -35 92q0 73 39 169q36 89 50 82q123 -67 252 -67q208 0 286 181q13 33 13 71q0 85 -60 156.5t-137 71.5q-16 0 -32 -3q-141 -57 -236 -120q-13 -9 -101 -80q4 41 4 78
q0 187 -107 282zM569 483q5 -12 5 -25q0 -68 -95 -151t-170 -83q-60 0 -68 66q-7 48 -7 94q0 250 181 445q33 -4 40 -59q12 -111 17 -129q24 -90 97 -158zM674 935q40 17 74 17q99 0 99 -101q0 -98 -113 -201q-68 -61 -102 -61q-33 0 -33 59q0 63 36 179q32 105 39 108z
M1284 787q15 2 29 2q78 0 78 -44q0 -19 -20 -39q-47 -49 -128 -62l-134 -12q-19 -2 -31 -2q-28 0 -28 11q0 22 107 83q95 53 127 63z" />
    <glyph glyph-name="filledbox" unicode="&#x160;" horiz-adv-x="1073" 
d="M770 1641q-63 -6 -229 -227q-162 -217 -177 -304q-12 -68 -12 -132q0 -380 421 -578q19 -9 19 -32q0 -61 -93 -128q-109 -77 -257 -77q-102 0 -209 40q-9 32 -3 111q6 74 -6 104q-20 47 -94 57q-28 -82 -28 -163q0 -130 70 -214q77 -92 219 -98q34 -1 64 -1
q321 0 444 171q37 52 37 128q0 87 -46 161q-22 36 -206 177q-176 134 -180.5 156.5t-4.5 48.5q0 142 111 367q101 206 161 240q25 14 51 14q33 0 47 -21q37 -53 37 -109q0 -80 -86 -180q-64 -74 -127 -147q-23 -36 -23 -62q0 -45 53 -45q32 0 65 19q206 122 200 431
q-7 295 -196 295q-10 0 -22 -2zM729 1768h112l109 213h-56l-109 -107l-102 107h-56z" />
    <glyph glyph-name="H22073" unicode="&#x161;" horiz-adv-x="1049" 
d="M712 1138q-58 -4 -210 -158q-149 -150 -163 -210q-33 -147 -33 -209q0 -99 68 -163q72 -67 260 -137q17 -6 17 -22q0 -33 -58 -66q-68 -38 -168 -38q-78 0 -165 25q-10 52 -19 103q-21 57 -116 66q-26 -56 -26 -113q0 -90 64 -148q71 -64 201 -68q344 -11 466 118
q34 36 34 89q0 60 -42 112q-20 25 -189 122q-162 93 -166 108.5t-4 33.5q0 95 98 239q88 129 137 150q50 21 73 -4q28 -31 28 -62q0 -45 -65 -102l-96 -84q-12 -14 -12 -30q0 -32 35.5 -59.5t75.5 -27.5q17 0 32 6q94 42 126 140q20 65 17 186q-7 217 -200 203zM678 1366
h112l109 213h-56l-109 -107l-102 107h-56z" />
    <glyph glyph-name="triagup" unicode="&#x165;" horiz-adv-x="1964" 
d="M968 1455q-51 16 -153 -361q-23 -82 -110 -450q-11 -92 -40 -149t-97 -118q-62 -55 -201 -131q-154 -84 -225 -91q-17 -29 -17 -48q0 -17 50 -98q19 -4 39 -4q103 0 249 99.5t154 99.5q4 0 7 -2q32 -23 52 -90q22 -74 46 -100q43 -47 144 -47q89 0 229 35q44 11 136 91
q105 90 105 147q0 36 -45 54q-21 7 -190 -89q-181 -103 -254 -103q-107 0 -65 189q10 18 65 176t60 185q21 -13 54 -13q108 0 293 110q177 106 169 145q-5 20 -28 72q-27 57 -41 70q-233 -106 -335 -185l-58 -24q-4 12 101 421q3 11 3 27q0 53 -27 108q-29 61 -70 74z
M1522 1483q36 93 154 93q37 0 72 -12q120 -40 120 -231q0 -40 -5 -90q-17 -179 -211 -295q141 110 141 377q0 32 -3 55q-67 -94 -146 -94q-58 0 -107 52q-32 33 -32 73q0 27 17 72z" />
    <glyph glyph-name="triagrt" unicode="&#x166;" horiz-adv-x="1345" 
d="M134 1383q-11 -25 -11 -49q0 -59 58 -122q20 -5 52 -5q196 0 598 127q407 129 371 184q-77 123 -161 118q-80 -116 -260 -155q-68 -14 -339 -33q-210 -15 -308 -65zM772 -7q-36 0 -84 35q-29 22 -53 89q-23 61 -23 104q0 11 2 18q17 61 35 257h-355v118l366 3
q20 238 28 305q16 143 32 150q9 5 23 5q57 0 115 -55q32 -31 32 -191q0 -90 -10 -218l272 -3v-118l-283 4q-18 -170 -45 -337q-24 -151 -31 -158.5t-21 -7.5z" />
    <glyph glyph-name="triagdn" unicode="&#x167;" horiz-adv-x="1559" 
d="M807 289q-12 -54 -12 -92q0 -97 77 -97q73 0 254 103q169 96 190 89q45 -18 45 -54q0 -57 -105 -147q-92 -80 -136 -91q-140 -35 -229 -35q-101 0 -144 47q-24 26 -46 100q-20 67 -52 90q-3 2 -7 2q-8 0 -154 -99.5t-249 -99.5q-20 0 -39 4q-50 81 -50 98q0 19 17 48
q71 7 225 91q139 76 201 131q25 23 44 42h-289v137l365 -3q11 39 17 91q87 368 110 450q102 377 153 361q41 -13 70 -74q27 -55 27 -108q0 -16 -3 -27q-105 -409 -101 -421l58 24q102 79 335 185q14 -13 41 -70q23 -52 28 -72q8 -39 -169 -145q-185 -110 -293 -110
q-33 0 -54 13q-3 -17 -31 -101l313 4v-138h-360q-39 -112 -47 -126z" />
    <glyph glyph-name="triaglf" unicode="&#x168;" horiz-adv-x="1540" 
d="M85 466q1 -77 44 -199q39 -112 86.5 -189.5t174.5 -77.5q80 0 178 29q18 5 113 143q93 134 122 134q7 0 12 -6q123 -179 206 -257q100 -93 192 -93q66 0 136 47q12 7 48 99q39 96 39 132q0 7 -2 10q-22 46 -47 46q-4 0 -7 -2q-132 -104 -233 -104q-132 0 -213 177
q-5 10 -5 29q0 55 81.5 358t81.5 429q0 93 -37 128q-68 65 -90 105l-23 -18q8 -185 -84 -487q-90 -297 -191 -433q-192 -260 -329 -260q-45 0 -81 31q-27 24 -27 101q0 75 53 377.5t53 467.5q0 110 -19 193q-25 107 -130 140q-16 -31 -60 -474q-43 -446 -42 -576zM1027 1810
h-83q-49 -84 -132 -84q-20 0 -108.5 41.5t-129.5 40.5q-148 -6 -242 -206h83q57 77 157 74q13 -1 94.5 -37.5t140.5 -36.5q138 0 220 208z" />
    <glyph glyph-name="lozenge" unicode="&#x169;" horiz-adv-x="1459" 
d="M134 284q1 -47 40 -122q36 -69 79 -116.5t160 -47.5q74 0 163 18q17 3 105 88q85 82 111 82q7 0 11 -4q222 -215 365 -215q61 0 126 29q10 5 44.5 62.5t34.5 79.5q0 4 -2 7q-27 38 -49 26q-121 -64 -214 -64q-121 0 -196 109q-4 6 -4 18q0 34 74.5 220.5t74.5 264.5
q0 57 -33 78q-62 40 -83 65l-21 -11q7 -114 -77 -300q-83 -182 -175 -266q-177 -160 -303 -160q-98 0 -98 81q0 46 48.5 232t48.5 288q0 103 -33 146.5t-104 58.5q-15 -19 -55 -293t-38 -354zM1095 1458h-83q-49 -84 -132 -84q-20 0 -108.5 41.5t-129.5 40.5
q-148 -6 -242 -206h83q57 77 157 74q13 -1 94.5 -37.5t140.5 -36.5q138 0 220 208z" />
    <glyph glyph-name="circle" unicode="&#x16a;" horiz-adv-x="1557" 
d="M88 464q1 -77 43 -199q40 -112 87 -189.5t174 -77.5q80 0 178 29q18 6 114 144q93 133 121 133q7 0 12 -6q123 -179 207 -257q99 -93 191 -93q66 0 137 47q11 8 47 99q39 96 39 132q0 7 -2 11q-22 45 -47 45q-4 0 -6 -2q-133 -104 -234 -104q-131 0 -213 177q-5 10 -5 30
q0 54 81.5 357t81.5 430q0 93 -36 127q-68 65 -91 106l-23 -19q8 -185 -84 -487q-90 -296 -191 -433q-192 -260 -329 -260q-45 0 -81 32q-27 23 -27 100q0 75 53 377.5t53 467.5q0 110 -19 193q-25 108 -129 141q-17 -31 -60.5 -476t-41.5 -575zM377 1722v-117h564v117h-564
z" />
    <glyph glyph-name="diamond" unicode="&#x178;" horiz-adv-x="1341" 
d="M1078 1643q-13 -29 -190 -349t-180 -321q-5 -2 -237.5 261.5t-279.5 327.5q-67 6 -67 -91q0 -86 40 -123q83 -75 235 -269q174 -221 225 -275q8 -9 8 -30q0 -66 -118.5 -306.5t-116.5 -273.5q11 -153 89 -175q50 -14 160 293q132 366 146 388q70 111 231 401
q192 345 192 389q1 64 -28 117t-69 53q-21 0 -40 -17zM691 1760q0 40 25 68t61 28t61 -28t25 -68q0 -39 -25 -67t-61 -28t-61 28t-25 67zM371 1760q0 40 25.5 68t61.5 28t61 -28t25 -68q0 -39 -25 -67t-61 -28t-61.5 28t-25.5 67z" />
    <glyph glyph-name="fl" unicode="&#x17d;" horiz-adv-x="1505" 
d="M123 1550q-24 -2 -28 -37q-5 -39 -15 -44l77 -96q28 -120 139 -472q24 -77 76 -77q23 0 46 18q-19 124 -62 376q-3 15 -23.5 43t-20.5 37q0 5 5 9q32 19 96 19q74 0 266 -38q184 -37 244 -33q2 -58 -246 -354q-271 -324 -311 -419q-24 -59 -77.5 -111.5t-79.5 -112.5
q-29 -69 -29 -109q0 -42 33 -77q8 -8 88 -72q11 -9 21 -9q17 0 35 31q15 30 30 59q2 8 52.5 83.5t54.5 79.5q106 -11 303 -83q177 -66 310 -66q53 0 111 8q223 31 223 223q0 108 -74 265q-8 17 -40.5 38t-56.5 21q-29 0 -26 -37q5 -49 19 -137q11 -68 11 -95q0 -63 -52 -83
q-55 -21 -218 -17q-71 1 -214 40q-147 39 -222 78q25 85 293 405q255 304 346 377q10 8 52 19q25 6 25 35q0 32 -27 108l-94 74q-61 4 -121 8q-160 18 -320 37q-218 24 -333 24q-40 0 -70 -2l-11 29q-9 -2 -19 -2q-27 0 -83 20.5t-83 18.5zM634 1581h112l109 213h-56
l-109 -107l-103 107h-56z" />
    <glyph glyph-name="fi2" unicode="&#x17e;" horiz-adv-x="1451" 
d="M710 892q-5 1 -209 -9q-212 -9 -244 -15.5t-32 -39.5q0 -22 22.5 -86.5t23.5 -95.5q16 36 296 21q-28 -86 -234 -323q-194 -222 -191 -249q6 -75 72 -161q48 1 174 74.5t182 73.5q36 0 62 -22q3 -10 3 -22q0 -62 -161 -258q-174 -213 -207 -334q-24 -90 -24 -168
q0 -142 74 -225q68 -78 172 -78q142 0 246 138q119 158 119 427q0 134 -31 287q-24 65 -17 81q6 14 247 127q248 115 273 143q-21 109 -92 161q-50 -1 -250 -106q-168 -88 -248 -141q-5 28 -88 122q-80 90 -80 119q0 9 5 15q5 20 138 179q131 156 134 182q2 9 2 19
q0 59 -40 104.5t-97 59.5zM691 -198q36 -40 36 -130q0 -145 -76 -313q-80 -176 -173 -213q-28 -11 -47 -11q-43 0 -43 54q0 105 147 373q141 257 156 240zM526 1158h112l109 213h-56l-109 -107l-102 107h-56z" />
    <glyph glyph-name="glyph723" unicode="&#x192;" horiz-adv-x="1567" 
d="M166 -307l-18 36q-17 38 -17 67q0 66 82 84q54 -116 166 -178q89 -49 178 -49q43 0 61 13l114 530q19 64 74 185q49 106 58 153q-111 -52 -187 -52q-123 0 -150 139q26 15 235 65q205 49 232 70q76 58 154 267.5t78 353.5q0 52 -13 83q-37 7 -80 7q-156 0 -282 -71
q-142 -80 -142 -204q0 -73 52 -153q-18 4 -39 4q-18 0 -39 -3q-108 148 -108 266q0 124 121 211q84 61 233 105l152 44q39 23 75 23q94 0 155 -136q58 -129 58 -310q0 -217 -84 -376l5 -23q119 -35 119 -154q0 -22 -4 -46q-10 3 -23 3q-41 0 -134 -24q-101 -25 -123 -27
q-164 -211 -198 -399q-14 -61 -37 -175q-64 -346 -127 -461.5t-186 -112.5q-43 7 -86 13q-102 24 -179 70q-107 64 -146 162z" />
    <glyph glyph-name="uni0258" unicode="&#x258;" horiz-adv-x="1042" 
d="M464 950q142 -57 215 -104q6 -4 81 -64q229 -184 229 -434q0 -78 -21 -163t-106 -137q-77 -47 -169 -47q-73 0 -286 66q-203 63 -299 56q-53 15 -53 68q0 43 33.5 81t72.5 33q57 -8 277 -77q196 -61 289 -61q73 0 113 30q36 27 36 92q0 73 -40 169q-36 89 -49 82
q-124 -67 -252 -67q-209 0 -286 181q-14 33 -14 71q0 85 60 157t138 72q15 0 31 -4zM450 789q-15 2 -29 2q-78 0 -78 -44q0 -18 20 -39q48 -49 128 -62l134 -12q19 -2 32 -2q28 0 28 11q0 22 -107 83q-95 54 -128 63z" />
    <glyph glyph-name="uni026F" unicode="&#x26f;" horiz-adv-x="2031" 
d="M1963 304q-27 21 -61 21q-49 0 -153 -64t-147 -64q-48 0 -79 54q-21 37 -21 79t32.5 133t32.5 144q0 22 -4 44q-15 73 -51 104q-27 23 -110 46q-38 -194 -85 -293q-71 -150 -196 -187q-6 -2 -14 -2q-17 0 -82 32q-25 65 -25 102q0 31 22 54.5t22 45.5q0 10 -3 23
q-19 87 -69 136q-42 41 -87 41q-42 0 -47 -33q-53 -336 -312 -336q-26 0 -55 3q-28 53 -28 127q0 14 1 41.5t1 41.5q0 140 -135 250q-12 10 -49 10q-60 0 -129 -21q-73 -22 -70 -44q16 -161 159 -161q28 0 61 8q-1 -7 -1 -17q0 -96 67 -243q75 -166 157 -187q62 -15 120 -15
q176 0 298 145q124 -195 264 -195q106 0 222 113q151 -207 332 -207q97 0 160.5 65t63.5 170q0 18 -2 36z" />
    <glyph glyph-name="Euro" unicode="&#x20ac;" horiz-adv-x="1275" 
d="M190 334q116 -319 425 -319q159 0 320 87q155 84 242 208q9 13 9 27q0 25 -27.5 43t-65.5 18q-15 0 -30 -3q-71 -53 -223 -112q-188 -73 -321 -73q-169 0 -209 123q6 144 41 304h255v98h-231q13 52 29 101l298 1v98h-263q179 469 457 580q30 -39 30 -93q0 -65 -62.5 -210
t-62.5 -209q0 -12 1 -23q31 -45 61 -45q16 0 27 14q51 59 98 195q50 145 50 256q0 42 -8 74q-48 190 -171 190q-163 0 -390 -280q-83 -103 -191 -451h-173v-97h148q-15 -53 -27 -102h-123v-97h102q-27 -133 -27 -216q0 -55 12 -87z" />
  </font>
</defs>
</svg>
